<svg width="48" height="48" viewBox="0 0 48 48" fill="none" xmlns="http://www.w3.org/2000/svg">
<g clip-path="url(#clip0_1185_37740)">
<mask id="mask0_1185_37740" style="mask-type:luminance" maskUnits="userSpaceOnUse" x="0" y="0" width="48" height="48">
<path d="M47.9996 0.458008H0.761597V47.696H47.9996V0.458008Z" fill="white"/>
</mask>
<g mask="url(#mask0_1185_37740)">
<path d="M24.412 42.904C22.827 42.904 21.2324 42.7026 19.6578 42.2939C14.7918 41.0325 10.7089 37.9521 8.16026 33.6188C5.61177 29.2855 4.90234 24.2199 6.1637 19.3548C7.42505 14.4887 10.5054 10.4056 14.8386 7.857C19.1708 5.30842 24.2364 4.599 29.1024 5.86035C33.9684 7.12179 38.0514 10.2022 40.5999 14.5354C43.1484 18.8678 43.8579 23.9344 42.5965 28.7995C41.3352 33.6656 38.2548 37.7487 33.9215 40.2973C30.9911 42.0208 27.7245 42.904 24.412 42.904ZM24.3825 9.17192C17.7548 9.17192 11.6914 13.6312 9.9535 20.3373C7.89099 28.2925 12.6854 36.4424 20.6404 38.504C24.4932 39.5028 28.5056 38.9413 31.9373 36.9227C35.3682 34.9041 37.8088 31.6699 38.8076 27.817C39.8064 23.963 39.245 19.9516 37.2264 16.5197C35.2078 13.0888 31.9736 10.6481 28.1208 9.64931C26.8718 9.32564 25.6171 9.17098 24.3834 9.17098L24.3825 9.17192Z" fill="#FFCE00"/>
<path d="M46.7975 41.1793C46.0699 41.2384 45.3986 41.3711 44.8381 41.4934H44.8334C41.9535 42.1513 39.2063 41.755 37.2976 40.4067C36.5002 39.8243 29.4638 29.9269 25.5193 23.2418C22.0007 17.2776 18.2852 9.78754 17.065 7.32587C16.7737 6.73766 16.7193 6.62967 16.6916 6.58291C15.0969 3.90158 12.9342 2.26687 10.4353 1.85533C7.95075 1.44569 5.35257 2.27357 3.11821 4.18614C2.54719 4.67506 2.02682 5.20697 1.52742 5.81426L0.761597 6.74428L1.96286 6.64687C2.69042 6.58773 3.36167 6.45499 3.92692 6.33085C6.80684 5.67386 9.55401 6.07019 11.4627 7.41846C12.2209 7.9599 20.0422 17.564 23.9409 24.1719C26.3606 28.2731 29.1888 34.1981 31.9045 40.8584C32.0085 41.1144 32.0305 41.1678 32.0458 41.1993C33.3597 43.9981 35.2732 45.7436 37.5811 46.2449C38.0509 46.3471 38.535 46.3977 39.0287 46.3977C41.1876 46.3977 43.527 45.4351 45.6411 43.6409L45.6526 43.6314C46.3163 43.0346 46.8032 42.5352 47.2338 42.0119L47.9996 41.0819L46.7975 41.1793Z" fill="#FFCE00"/>
<path d="M44.1026 2.81611L44.0931 2.80459C43.4963 2.14193 42.9969 1.65396 42.4736 1.22334L41.5436 0.45752L41.641 1.65878C41.7003 2.38644 41.8329 3.05769 41.9551 3.61822V3.62294C42.6131 6.50285 42.2167 9.25012 40.8685 11.1589C40.286 11.9562 30.3889 18.9928 23.7039 22.9373C17.7407 26.4561 10.2499 30.1716 7.78825 31.3919C7.20004 31.6832 7.09215 31.7376 7.04538 31.7653C4.36406 33.3599 2.72934 35.5227 2.3178 38.0217C1.90919 40.5062 2.73699 43.1045 4.64862 45.3389C5.13753 45.9099 5.66943 46.4303 6.27568 46.9297L7.2058 47.6955L7.1084 46.4943C7.04916 45.7667 6.91642 45.0954 6.79322 44.5301C6.13633 41.6502 6.53256 38.903 7.88083 36.9941C8.42228 36.236 18.0262 28.4146 24.6339 24.5157C28.7331 22.0971 34.659 19.2687 41.3183 16.553C41.5761 16.448 41.6296 16.426 41.6601 16.4117C44.4588 15.0978 46.2043 13.1842 46.7056 10.8762C47.2546 8.35156 46.3055 5.4143 44.1017 2.81706L44.1026 2.81611Z" fill="#FFCE00"/>
<path d="M35.5097 28.0613C35.2127 27.9906 34.9177 27.9152 34.6197 27.8522C34.4746 27.8216 34.4393 27.752 34.4756 27.6135C34.5386 27.3767 34.5854 27.1361 34.6465 26.8983C34.6771 26.7808 34.657 26.714 34.5252 26.6834C33.2991 26.3989 32.0741 26.1115 30.849 25.8212C30.7192 25.7906 30.6685 25.8374 30.6427 25.9577C30.594 26.1907 30.5416 26.4247 30.4785 26.6538C30.4403 26.7942 30.4747 26.8611 30.6218 26.8906C30.8623 26.9383 31.0982 27.0052 31.3379 27.0548C31.4706 27.0826 31.5135 27.1436 31.4782 27.2784C31.4056 27.5609 31.3417 27.8455 31.2768 28.1301C31.2472 28.2609 31.1727 28.3039 31.0447 28.2733C30.3868 28.1186 29.729 27.9649 29.071 27.8121C28.9411 27.7825 28.8963 27.7147 28.9297 27.5829C28.9994 27.307 29.0557 27.0271 29.1274 26.7512C29.1617 26.6175 29.1245 26.5584 28.9899 26.5287C28.5497 26.4313 28.1133 26.3196 27.6731 26.225C27.5127 26.1907 27.4678 26.121 27.5117 25.9634C27.5767 25.7276 27.6225 25.486 27.6826 25.2483C27.7123 25.1318 27.6751 25.0763 27.5595 25.0516C27.3131 24.999 27.0677 24.9426 26.8242 24.8787C26.6963 24.8453 26.6428 24.8902 26.617 25.0133C26.5664 25.253 26.5015 25.4898 26.4519 25.7305C26.4232 25.867 26.3678 25.9167 26.2199 25.8851C25.8035 25.7963 25.7977 25.8011 25.6831 26.225C25.6469 26.3617 25.581 26.3903 25.454 26.3578C25.2162 26.2967 24.9756 26.2499 24.7388 26.1869C24.6099 26.1525 24.5412 26.1792 24.5135 26.3196C24.4648 26.5602 24.4075 26.799 24.3464 27.0357C24.3148 27.1589 24.3464 27.2201 24.4743 27.2468C24.714 27.2965 24.9509 27.3633 25.1904 27.411C25.3413 27.4407 25.3853 27.5075 25.3471 27.6593C25.2373 28.0966 25.1437 28.5369 25.0339 28.9742C24.9986 29.1165 25.0339 29.1804 25.179 29.2091C25.4454 29.2625 25.707 29.336 25.9735 29.3906C26.1023 29.4173 26.1481 29.4697 26.1281 29.6063C26.0737 29.9816 25.962 30.3425 25.8818 30.7121C25.8169 31.01 25.7405 31.305 25.6737 31.603C25.645 31.7328 25.581 31.7797 25.4473 31.7462C25.158 31.6737 24.8677 31.6058 24.5764 31.5409C24.46 31.5151 24.4266 31.454 24.4552 31.3404C24.5164 31.0959 24.5641 30.8486 24.63 30.6051C24.6691 30.461 24.6233 30.3998 24.482 30.3722C24.248 30.3263 24.016 30.269 23.7849 30.2098C23.6656 30.1792 23.6016 30.2031 23.571 30.3339C23.2865 31.561 22.9991 32.786 22.7087 34.0112C22.6773 34.143 22.7289 34.1907 22.8472 34.2155C23.0869 34.2671 23.3237 34.3311 23.5634 34.3807C23.7038 34.4094 23.7496 34.4724 23.7133 34.6157C23.6369 34.9107 23.5739 35.2086 23.5052 35.5056C23.4927 35.5132 23.4794 35.5208 23.4669 35.5294C23.1719 35.4597 22.8768 35.3853 22.5808 35.3213C22.4404 35.2917 22.4004 35.2306 22.4309 35.0864C22.5236 34.6519 22.5188 34.651 22.091 34.5507C21.8981 34.5058 21.7043 34.4657 21.5133 34.4132C21.3787 34.376 21.3109 34.4018 21.2737 34.5507C21.1658 34.9881 21.16 34.9861 20.7131 34.8811C20.5078 34.8333 20.3016 34.7856 20.0963 34.7389C20.0886 34.7254 20.081 34.7131 20.0724 34.6996C20.1412 34.4094 20.2176 34.121 20.2758 33.8288C20.3092 33.6655 20.3846 33.6273 20.5394 33.6703C20.7685 33.7343 21.0043 33.7773 21.2344 33.8374C21.3528 33.868 21.4188 33.847 21.4493 33.7152C21.7338 32.4891 22.0212 31.2631 22.3106 30.0379C22.3374 29.9272 22.3163 29.8622 22.1951 29.8365C21.943 29.782 21.6909 29.7238 21.4407 29.6598C21.3195 29.6292 21.2727 29.6798 21.2488 29.7906C21.1953 30.037 21.1304 30.2804 21.0788 30.5268C21.0512 30.6577 20.9919 30.7044 20.8564 30.6691C20.5737 30.5965 20.2902 30.5306 20.0056 30.4696C19.871 30.4408 19.8336 30.3692 19.8643 30.2413C20.0218 29.5777 20.1793 28.9131 20.3321 28.2484C20.3618 28.1215 20.4267 28.09 20.5469 28.1205C20.8105 28.1864 21.0779 28.237 21.3395 28.3105C21.5037 28.3564 21.5782 28.322 21.6145 28.1463C21.7033 27.7185 21.8159 27.2955 21.9077 26.8677C21.941 26.7111 22.0051 26.6567 22.1674 26.7016C22.4032 26.7674 22.6448 26.8123 22.8826 26.8725C22.9962 26.9011 23.0563 26.8725 23.0821 26.7532C23.1346 26.5068 23.192 26.2613 23.255 26.0179C23.2874 25.8937 23.2521 25.8346 23.1251 25.8078C22.8787 25.7563 22.6352 25.6894 22.3899 25.6378C22.2562 25.6101 22.2228 25.5471 22.2495 25.4134C22.3355 24.9904 22.3325 24.9847 21.9143 24.8739C21.7817 24.8386 21.7424 24.7803 21.7768 24.6485C21.8398 24.4051 21.8885 24.1577 21.9516 23.9143C21.984 23.7892 21.9449 23.731 21.8198 23.7052C21.5801 23.6555 21.3404 23.6001 21.1046 23.5371C20.9681 23.5008 20.9117 23.5476 20.885 23.6794C20.8373 23.9133 20.7704 24.1425 20.7255 24.3764C20.694 24.5416 20.6167 24.5741 20.4611 24.534C20.0438 24.428 19.6207 24.3439 19.2054 24.2323C19.0154 24.1816 18.9447 24.236 18.9122 24.4213C18.8664 24.6753 18.7938 24.9245 18.7394 25.1766C18.7088 25.315 18.6363 25.3647 18.4979 25.3313C17.8466 25.1776 17.1954 25.0248 16.5432 24.8758C16.4077 24.8443 16.3532 24.7813 16.3895 24.6371C16.4621 24.3544 16.5289 24.0709 16.5891 23.7854C16.6186 23.6478 16.6874 23.6173 16.8164 23.6507C17.0531 23.7118 17.2947 23.7596 17.5315 23.8217C17.6585 23.855 17.7301 23.8322 17.7578 23.6908C17.8055 23.4502 17.8638 23.2124 17.9249 22.9747C17.9564 22.8534 17.9278 22.7923 17.7988 22.7627C16.5728 22.4781 15.3477 22.1907 14.1236 21.9004C13.9909 21.8689 13.945 21.9215 13.9202 22.0398C13.8686 22.2795 13.8047 22.5163 13.7551 22.756C13.7264 22.8973 13.6624 22.9422 13.5201 22.905C13.225 22.8295 12.9272 22.7655 12.6302 22.6967C12.6226 22.6834 12.6149 22.671 12.6063 22.6576C12.676 22.3626 12.7514 22.0675 12.8145 21.7715C12.8441 21.6311 12.9071 21.592 13.0494 21.6225C13.4829 21.7142 13.4838 21.7095 13.5842 21.2817C13.629 21.0888 13.6691 20.8949 13.7216 20.704C13.7588 20.5684 13.7321 20.5015 13.5842 20.4652C13.1478 20.3573 13.1497 20.3516 13.2538 19.9037C13.3015 19.6984 13.3492 19.4922 13.397 19.2869C13.4094 19.2793 13.4227 19.2716 13.4352 19.263C13.7312 19.3337 14.0271 19.4082 14.3251 19.4722C14.4702 19.5027 14.5065 19.5715 14.4693 19.7108C14.4063 19.9477 14.3594 20.1883 14.2984 20.4261C14.2687 20.5435 14.2869 20.6103 14.4196 20.6419C15.6456 20.9264 16.8708 21.2138 18.0949 21.5032C18.2056 21.5289 18.2706 21.5098 18.2963 21.3877C18.3508 21.1346 18.41 20.8835 18.473 20.6333C18.5035 20.512 18.4539 20.4652 18.3432 20.4404C18.0977 20.3869 17.8543 20.322 17.6079 20.2704C17.4781 20.2427 17.4293 20.1845 17.4647 20.0489C17.5372 19.7663 17.6041 19.4827 17.6642 19.1972C17.6957 19.0491 17.776 19.0214 17.9087 19.0539C18.559 19.2095 19.2102 19.3643 19.8614 19.5152C19.9998 19.5476 20.0457 19.6182 20.0094 19.7586C19.9435 20.0155 19.8958 20.2771 19.8232 20.5312C19.7764 20.6954 19.8117 20.7698 19.9875 20.8061C20.4152 20.8949 20.8382 21.0076 21.2651 21.0992C21.4216 21.1327 21.476 21.1966 21.4311 21.358C21.3653 21.5939 21.3204 21.8355 21.2602 22.0733C21.2316 22.1859 21.2602 22.247 21.3796 22.2728C21.626 22.3254 21.8714 22.3826 22.1149 22.4456C22.239 22.4781 22.2982 22.4428 22.3249 22.3158C22.3765 22.0694 22.4434 21.826 22.4949 21.5796C22.5226 21.4459 22.5856 21.4124 22.7193 21.4392C23.1413 21.5251 23.1471 21.5223 23.2588 21.1041C23.2941 20.9713 23.3543 20.9332 23.4851 20.9665C23.7286 21.0295 23.9759 21.0783 24.2193 21.1413C24.3454 21.1738 24.4018 21.1336 24.4275 21.0085C24.4782 20.7689 24.5326 20.5292 24.5956 20.2924C24.6328 20.1549 24.5842 20.0995 24.4533 20.0728C24.2327 20.0279 24.017 19.9591 23.7945 19.9238C23.5882 19.8914 23.5567 19.7977 23.6064 19.6096C23.7124 19.2134 23.7982 18.8104 23.8909 18.4113C23.9298 18.2439 23.8629 18.1398 23.6904 18.0991C23.445 18.0408 23.2015 17.9787 22.9551 17.9281C22.811 17.8985 22.7728 17.825 22.8052 17.6874C22.9628 17.0305 23.1184 16.3726 23.2693 15.7137C23.3008 15.5782 23.3667 15.5438 23.4966 15.5763C23.7792 15.6479 24.0628 15.7147 24.3473 15.7758C24.4848 15.8054 24.5154 15.8741 24.482 16.003C24.4208 16.2399 24.3731 16.4814 24.3111 16.7183C24.2776 16.8453 24.3006 16.9169 24.4418 16.9446C24.6815 16.9923 24.9202 17.0506 25.158 17.1117C25.2793 17.1432 25.3404 17.1145 25.371 16.9857C25.6555 15.7595 25.9429 14.5335 26.2332 13.3093C26.2647 13.1766 26.2113 13.1308 26.0938 13.1059C25.8541 13.0544 25.6173 12.9904 25.3776 12.9408C25.2363 12.9121 25.1914 12.8482 25.2287 12.7059C25.3041 12.4107 25.3681 12.1129 25.4368 11.8159C25.4492 11.8083 25.4626 11.8006 25.475 11.793C25.7701 11.8627 26.0642 11.9371 26.3612 12.0011C26.5005 12.0308 26.5416 12.0919 26.511 12.2361C26.4184 12.6706 26.4241 12.6715 26.851 12.7717C27.0439 12.8166 27.2377 12.8567 27.4287 12.9092C27.5633 12.9465 27.6311 12.9217 27.6684 12.7727C27.7763 12.3354 27.7819 12.3372 28.2288 12.4414C28.4341 12.4891 28.6404 12.5358 28.8457 12.5836C28.8534 12.596 28.862 12.6094 28.8695 12.6218C28.799 12.9187 28.7235 13.2139 28.6605 13.5118C28.6298 13.6569 28.5602 13.6922 28.4217 13.6559C28.185 13.5929 27.9443 13.5462 27.7065 13.485C27.5891 13.4545 27.5222 13.4745 27.4917 13.6063C27.2071 14.8324 26.9197 16.0585 26.6294 17.2835C26.5989 17.4134 26.6447 17.464 26.766 17.4898C26.999 17.5385 27.232 17.5911 27.4621 17.6541C27.6015 17.6922 27.6693 17.6588 27.6989 17.5108C27.7457 17.2702 27.8135 17.0343 27.8632 16.7937C27.8909 16.6619 27.9519 16.618 28.0866 16.6523C28.3692 16.7249 28.6528 16.7908 28.9383 16.852C29.0557 16.8768 29.0911 16.935 29.0662 17.0477C29.0453 17.1442 29.0385 17.2444 29.0166 17.3409C28.8886 17.8899 28.7588 18.4371 28.6289 18.9852C28.5716 19.2296 28.5602 19.2372 28.3234 19.1828C28.0713 19.1246 27.8183 19.0711 27.5691 19.0042C27.4268 18.9661 27.3657 19.0072 27.3341 19.1504C27.2377 19.5906 27.126 20.0269 27.0305 20.4671C26.9971 20.6199 26.9293 20.661 26.7803 20.6209C26.5435 20.5569 26.3029 20.511 26.0651 20.4499C25.9391 20.4175 25.8828 20.4576 25.856 20.5817C25.8054 20.8214 25.751 21.0611 25.688 21.2979C25.6507 21.4354 25.6994 21.4908 25.8302 21.5175C26.0508 21.5624 26.2676 21.6311 26.4891 21.6665C26.6954 21.699 26.7249 21.7925 26.6772 21.9806C26.5703 22.397 26.5426 22.3396 26.9646 22.4314C27.146 22.4705 27.2119 22.5383 27.1546 22.7273C27.0897 22.9422 27.0544 23.1666 26.9951 23.3843C26.9579 23.5227 26.9876 23.5934 27.1365 23.622C27.3704 23.6669 27.6024 23.7233 27.8326 23.7854C27.9644 23.8207 28.0283 23.7854 28.056 23.6488C28.1047 23.4081 28.1715 23.1723 28.2203 22.9317C28.2489 22.7894 28.3148 22.7493 28.457 22.7837C28.8944 22.8925 29.3345 22.9861 29.7719 23.0968C29.9237 23.1351 29.9887 23.0968 30.0192 22.9431C30.0717 22.6767 30.1452 22.4142 30.2016 22.1487C30.2303 22.0122 30.2904 21.9539 30.4356 21.9883C31.0925 22.1458 31.7504 22.3005 32.4083 22.4552C32.5353 22.4848 32.5858 22.5497 32.5525 22.6834C32.4799 22.9727 32.4121 23.263 32.3481 23.5543C32.3223 23.6708 32.2612 23.7042 32.1485 23.6765C31.9041 23.6154 31.6568 23.5676 31.4142 23.5018C31.2701 23.4626 31.2089 23.5065 31.1813 23.6497C31.1354 23.8837 31.0782 24.1158 31.019 24.3469C30.9884 24.4662 31.0113 24.5311 31.1422 24.5608C32.3682 24.8453 33.5932 25.1327 34.8183 25.4229C34.9492 25.4545 34.9979 25.4048 35.0237 25.2845C35.0733 25.0516 35.1382 24.8214 35.1831 24.5875C35.2137 24.429 35.2814 24.3783 35.4428 24.4213C35.7303 24.4987 36.0234 24.5588 36.3137 24.6257C36.3213 24.639 36.3299 24.6514 36.3376 24.6638C36.2679 24.9589 36.1925 25.2539 36.1294 25.551C36.0998 25.6913 36.0377 25.7314 35.8945 25.7009C35.4609 25.6082 35.459 25.614 35.3588 26.0408C35.3139 26.2336 35.2739 26.4275 35.2213 26.6184C35.1841 26.7532 35.2098 26.8209 35.3588 26.8581C35.7952 26.966 35.7942 26.9718 35.6892 27.4196C35.6415 27.6249 35.5937 27.8312 35.5469 28.0375C35.5345 28.0451 35.5221 28.0527 35.5097 28.0613ZM25.5495 23.8989C25.6192 23.603 25.6851 23.3051 25.7596 23.01C25.7911 22.8859 25.7547 22.8285 25.6297 22.7999C25.0234 22.6615 24.418 22.5192 23.8126 22.374C23.6971 22.3463 23.6417 22.3798 23.615 22.4963C23.4755 23.1026 23.3343 23.709 23.1881 24.3134C23.1585 24.4385 23.1929 24.4948 23.318 24.5234C23.9177 24.66 24.5173 24.8003 25.1151 24.9456C25.2487 24.978 25.3089 24.9426 25.3375 24.808C25.4015 24.5034 25.4789 24.2016 25.5495 23.8989Z" fill="#2B94FC"/>
<path d="M12.055 25.0116C11.7265 24.9343 11.3991 24.8521 11.0687 24.7805C10.9274 24.75 10.8816 24.6821 10.9159 24.5428C11.0734 23.8858 11.2291 23.2279 11.38 22.569C11.4105 22.4362 11.4726 22.3962 11.6044 22.4276C11.9385 22.5088 12.2756 22.5824 12.6108 22.6587C12.6184 22.6712 12.6261 22.6845 12.6346 22.6979C12.4542 23.4618 12.2738 24.2257 12.0932 24.9887C12.0808 24.9964 12.0675 25.003 12.055 25.0116Z" fill="#2B94FC"/>
<path d="M23.1257 11.237C23.2021 10.9152 23.2862 10.5944 23.352 10.2698C23.3873 10.0959 23.4694 10.0597 23.6317 10.0998C24.262 10.2545 24.8932 10.4035 25.5263 10.5476C25.6895 10.5849 25.7458 10.6565 25.7019 10.8255C25.6189 11.1454 25.5521 11.47 25.4785 11.7928C25.4661 11.8004 25.4527 11.808 25.4403 11.8157C24.6764 11.6352 23.9135 11.4548 23.1495 11.2752C23.142 11.2619 23.1334 11.2504 23.1257 11.237Z" fill="#2B94FC"/>
<path d="M28.8499 12.585C28.9291 12.2565 29.0131 11.929 29.0847 11.5996C29.1172 11.4487 29.1879 11.4038 29.3368 11.4391C29.9871 11.5966 30.6373 11.7495 31.2895 11.9013C31.4299 11.9337 31.47 12.0072 31.4346 12.1457C31.3525 12.4733 31.28 12.8037 31.2035 13.1322L31.1654 13.156C30.4014 12.9784 29.6376 12.8007 28.8737 12.6232C28.8661 12.6107 28.8575 12.5974 28.8499 12.585Z" fill="#2B94FC"/>
<path d="M13.4004 19.2851C13.0786 19.2078 12.7578 19.1247 12.434 19.055C12.2803 19.0216 12.2201 18.9586 12.2603 18.7953C12.4188 18.145 12.5716 17.4938 12.7195 16.8416C12.753 16.6935 12.8255 16.6659 12.9612 16.7003C13.2886 16.7824 13.619 16.855 13.9475 16.9304C13.9552 16.9428 13.9638 16.9562 13.9714 16.9686C13.7938 17.7325 13.6162 18.4974 13.4376 19.2613C13.4252 19.2689 13.4128 19.2765 13.4004 19.2851Z" fill="#2B94FC"/>
<path d="M25.822 36.085C25.7476 36.401 25.6664 36.7152 25.6006 37.0331C25.5643 37.2051 25.4897 37.2652 25.3102 37.2223C24.6867 37.0694 24.0613 36.9234 23.4339 36.7849C23.2458 36.7439 23.2029 36.6588 23.2515 36.4774C23.3356 36.1642 23.3986 35.8453 23.4712 35.5293C23.4835 35.5216 23.497 35.514 23.5093 35.5054C24.2723 35.6858 25.0362 35.8653 25.7991 36.0459C25.8067 36.0582 25.8153 36.0716 25.823 36.084L25.822 36.085Z" fill="#2B94FC"/>
<path d="M17.7841 34.166C18.548 34.3436 19.3118 34.5212 20.0758 34.6989C20.0834 34.7113 20.091 34.7247 20.0996 34.7381C20.0223 35.0599 19.9393 35.3807 19.8695 35.7044C19.8333 35.8724 19.7521 35.9183 19.5869 35.8782C18.9567 35.7253 18.3246 35.5783 17.6915 35.4361C17.5253 35.3988 17.4747 35.3253 17.5186 35.1573C17.6027 34.8374 17.6715 34.5126 17.7459 34.1899C17.7583 34.1823 17.7717 34.1746 17.7841 34.166Z" fill="#2B94FC"/>
<path d="M34.9758 30.3512C35.1534 29.5874 35.332 28.8234 35.5096 28.0586C35.522 28.0509 35.5354 28.0433 35.5478 28.0347C35.863 28.1102 36.1752 28.1971 36.4931 28.2581C36.664 28.2906 36.7137 28.368 36.6774 28.5275C36.5705 28.9906 36.4654 29.4546 36.3585 29.9187C36.3184 30.0925 36.2697 30.2643 36.2382 30.44C36.2086 30.6062 36.136 30.6616 35.9651 30.6167C35.6461 30.5327 35.3225 30.4649 35.0007 30.3895C34.993 30.3761 34.9844 30.3637 34.9769 30.3503L34.9758 30.3512Z" fill="#2B94FC"/>
<path d="M36.8942 22.312C37.216 22.3884 37.5359 22.4696 37.8587 22.5374C37.9952 22.5661 38.0468 22.6195 38.0229 22.7646C37.9513 23.202 37.8252 23.6269 37.7316 24.0594C37.6811 24.2915 37.6199 24.5216 37.5693 24.7546C37.5407 24.8854 37.4739 24.9275 37.3421 24.895C37.0078 24.8138 36.6727 24.7403 36.3375 24.6648C36.3299 24.6525 36.3213 24.6391 36.3137 24.6267C36.4942 23.8627 36.6746 23.0998 36.8551 22.3359C36.8675 22.3283 36.8809 22.3206 36.8933 22.313L36.8942 22.312Z" fill="#2B94FC"/>
<path d="M26.0448 34.9892C25.723 34.9128 25.4031 34.8316 25.0794 34.7629C24.9246 34.7304 24.8646 34.6655 24.9066 34.5031C24.982 34.2157 25.0488 33.9255 25.1118 33.6352C25.1396 33.5073 25.1949 33.4528 25.3315 33.4871C25.6198 33.5607 25.9092 33.6275 26.1994 33.6915C26.3245 33.7192 26.3589 33.7812 26.3293 33.9035C26.2433 34.2568 26.1641 34.611 26.082 34.9653C26.0696 34.973 26.0571 34.9806 26.0448 34.9892Z" fill="#2B94FC"/>
<path d="M33.8805 30.1292C33.5339 30.047 33.1873 29.9611 32.8397 29.8847C32.7003 29.8542 32.6535 29.7931 32.6907 29.6498C32.7624 29.3748 32.8263 29.0979 32.8856 28.82C32.9151 28.6815 32.981 28.6281 33.1214 28.6634C33.4164 28.7369 33.7115 28.8076 34.0075 28.8745C34.1497 28.907 34.1822 28.9852 34.1488 29.1209C34.0676 29.4474 33.9951 29.7768 33.9187 30.1044C33.9063 30.112 33.893 30.1206 33.8805 30.1292Z" fill="#2B94FC"/>
<path d="M13.1488 25.2355C13.2262 24.9079 13.3092 24.5813 13.3799 24.252C13.4124 24.0991 13.4878 24.0581 13.633 24.0944C13.9213 24.1669 14.2097 24.2357 14.5 24.3016C14.6394 24.3331 14.6814 24.4066 14.6461 24.545C14.5744 24.8268 14.5086 25.1094 14.4465 25.394C14.4188 25.52 14.3548 25.5515 14.2336 25.5219C13.8812 25.4359 13.527 25.3567 13.1727 25.2746C13.1651 25.2613 13.1565 25.2488 13.1488 25.2355Z" fill="#2B94FC"/>
<path d="M30.9407 14.2505C30.8586 14.5981 30.7717 14.9438 30.6963 15.2933C30.6657 15.4346 30.6027 15.4775 30.4604 15.4412C30.1797 15.3677 29.8952 15.3038 29.6116 15.2407C29.4874 15.2131 29.4483 15.1462 29.4769 15.0269C29.5504 14.7184 29.6259 14.41 29.6937 14.1006C29.7224 13.9698 29.7968 13.9507 29.9124 13.9793C30.2465 14.0595 30.5817 14.135 30.9159 14.2133C30.9236 14.2266 30.9321 14.239 30.9398 14.2524L30.9407 14.2505Z" fill="#2B94FC"/>
<path d="M35.8 22.0864C35.7236 22.4082 35.6425 22.7281 35.5737 23.0509C35.5374 23.22 35.4544 23.2658 35.2911 23.2228C35.0103 23.1502 34.7258 23.0872 34.4422 23.0242C34.3152 22.9955 34.2646 22.9315 34.298 22.7978C34.3706 22.5095 34.4384 22.2201 34.5014 21.9299C34.5291 21.8048 34.5911 21.7704 34.7134 21.8C35.0658 21.886 35.4209 21.9652 35.7743 22.0473C35.7819 22.0597 35.7905 22.0731 35.7981 22.0855L35.8 22.0864Z" fill="#2B94FC"/>
<path d="M15.0667 17.1938C15.4134 17.2759 15.76 17.3619 16.1085 17.4383C16.2489 17.4689 16.2938 17.5309 16.2566 17.6732C16.1859 17.9415 16.1229 18.2117 16.0665 18.483C16.0341 18.6386 15.9576 18.693 15.8001 18.6539C15.5184 18.5823 15.2348 18.5173 14.9513 18.4572C14.8013 18.4247 14.7612 18.3493 14.7984 18.2012C14.8815 17.8746 14.9532 17.5452 15.0295 17.2177C15.042 17.2101 15.0553 17.2024 15.0678 17.1948L15.0667 17.1938Z" fill="#2B94FC"/>
<path d="M22.903 12.3325C23.2315 12.4099 23.5589 12.491 23.8883 12.5636C24.0068 12.5894 24.0517 12.6371 24.0345 12.767C23.9915 13.0965 23.8893 13.4125 23.8177 13.7343C23.7967 13.8298 23.7309 13.8593 23.6372 13.8365C23.3345 13.7649 23.0329 13.6913 22.7292 13.6245C22.5888 13.5939 22.5965 13.5061 22.6222 13.3992C22.7044 13.0516 22.7846 12.703 22.8657 12.3554C22.8781 12.3478 22.8906 12.3402 22.903 12.3325Z" fill="#2B94FC"/>
<path d="M18.0074 33.0727C18.0895 32.7251 18.1765 32.3785 18.2528 32.029C18.2844 31.8858 18.3502 31.8466 18.4906 31.8839C18.7656 31.9555 19.0435 32.0185 19.3213 32.0796C19.4292 32.1034 19.476 32.1455 19.4608 32.2687C19.4206 32.6058 19.3166 32.9276 19.2411 33.2561C19.2115 33.383 19.1132 33.3639 19.0177 33.3419C18.6892 33.2656 18.3608 33.1892 18.0323 33.1127C18.0246 33.0994 18.017 33.087 18.0084 33.0736L18.0074 33.0727Z" fill="#2B94FC"/>
<path d="M37.6392 26.7644C37.6049 26.9124 37.5657 27.0595 37.5362 27.2085C37.5123 27.3306 37.4521 27.3736 37.327 27.3422C37.0712 27.2772 36.8143 27.2171 36.5555 27.1616C36.4295 27.1349 36.3979 27.069 36.4276 26.9488C36.5039 26.6412 36.5755 26.3318 36.6453 26.0225C36.6701 25.9098 36.7255 25.8678 36.842 25.8964C37.1045 25.9614 37.3681 26.0235 37.6326 26.0817C37.7501 26.1075 37.7806 26.1705 37.752 26.2822C37.7109 26.4417 37.6765 26.6031 37.6392 26.7644Z" fill="#2B94FC"/>
<path d="M12.4095 20.8377C12.3733 20.9924 12.3341 21.1461 12.3016 21.3009C12.2777 21.4144 12.2205 21.4555 12.1049 21.4269C11.8424 21.3619 11.5788 21.2998 11.3143 21.2416C11.1968 21.2158 11.1673 21.1528 11.1949 21.041C11.2704 20.7327 11.343 20.4242 11.4117 20.1148C11.4384 19.9926 11.4967 19.9497 11.6218 19.9811C11.8777 20.0461 12.1345 20.1062 12.3933 20.1617C12.5204 20.1893 12.5528 20.2552 12.5204 20.3756C12.4793 20.5283 12.4468 20.6839 12.4105 20.8387L12.4095 20.8377Z" fill="#2B94FC"/>
<path d="M21.3785 36.8316C21.2181 36.7944 21.0578 36.7552 20.8964 36.7189C20.8 36.697 20.7665 36.6426 20.7894 36.5461C20.8553 36.2701 20.9202 35.9932 20.9842 35.7163C21.0071 35.616 21.0692 35.5931 21.1609 35.615C21.4817 35.6915 21.8035 35.7669 22.1253 35.8405C22.2313 35.8643 22.2657 35.9216 22.2399 36.0266C22.1739 36.2959 22.1109 36.5661 22.0499 36.8363C22.025 36.9462 21.9611 36.97 21.8598 36.9453C21.6994 36.9051 21.5399 36.8688 21.3785 36.8316Z" fill="#2B94FC"/>
<path d="M27.567 10.4885C27.7216 10.5248 27.8754 10.5639 28.0301 10.5964C28.1428 10.6203 28.1847 10.6766 28.1561 10.7931C28.0912 11.0557 28.0291 11.3192 27.9708 11.5837C27.9451 11.7012 27.882 11.7307 27.7704 11.704C27.4628 11.6286 27.1545 11.5561 26.8441 11.4873C26.7228 11.4605 26.6779 11.4033 26.7104 11.2781C26.7753 11.0223 26.8355 10.7644 26.8918 10.5066C26.9186 10.3806 26.9845 10.3462 27.1048 10.3787C27.2576 10.4197 27.4132 10.4522 27.567 10.4885Z" fill="#2B94FC"/>
<path d="M34.9994 30.3915C34.9278 30.6875 34.8513 30.9825 34.7874 31.2794C34.7569 31.4179 34.6976 31.4686 34.5535 31.4303C34.3109 31.3654 34.0655 31.3082 33.8191 31.2585C33.673 31.2289 33.6425 31.1573 33.6769 31.0197C33.7514 30.7247 33.8134 30.4268 33.8813 30.1298C33.8936 30.1222 33.907 30.1146 33.9194 30.106C34.2717 30.1881 34.6241 30.2711 34.9755 30.3532C34.9831 30.3657 34.9908 30.378 34.9994 30.3915Z" fill="#2B94FC"/>
<path d="M13.1738 25.2728C13.1022 25.5688 13.0258 25.8639 12.9618 26.1609C12.9313 26.2993 12.8721 26.3499 12.7279 26.3118C12.4854 26.2468 12.2399 26.1895 11.9936 26.1398C11.8475 26.1102 11.817 26.0386 11.8513 25.9012C11.9258 25.606 11.9879 25.3081 12.0557 25.0112C12.0681 25.0036 12.0814 24.9959 12.0939 24.9873C12.4462 25.0694 12.7986 25.1525 13.1499 25.2346C13.1576 25.248 13.1662 25.2595 13.1738 25.2728Z" fill="#2B94FC"/>
<path d="M17.7454 34.1917C17.4494 34.1201 17.1553 34.0446 16.8584 33.9797C16.7199 33.9492 16.6693 33.8899 16.7075 33.7457C16.7724 33.5032 16.8298 33.2578 16.8794 33.0114C16.9089 32.8653 16.9806 32.8338 17.1181 32.8682C17.4132 32.9418 17.711 33.0048 18.007 33.0725C18.0147 33.085 18.0223 33.0983 18.0309 33.1117C17.9488 33.464 17.8658 33.8164 17.7836 34.1687C17.7712 34.1764 17.7579 34.1831 17.7454 34.1917Z" fill="#2B94FC"/>
<path d="M25.7979 36.0473C25.8809 35.6949 25.9631 35.3426 26.0461 34.9902C26.0585 34.9826 26.0719 34.9749 26.0843 34.9663C26.3803 35.0379 26.6744 35.1134 26.9724 35.1783C27.1108 35.2089 27.1614 35.2681 27.1233 35.4123C27.0583 35.6548 27.001 35.9002 26.9513 36.1466C26.9217 36.2927 26.8501 36.3233 26.7127 36.2889C26.4175 36.2144 26.1196 36.1524 25.8236 36.0845C25.816 36.0722 25.8074 36.0587 25.7997 36.0464L25.7979 36.0473Z" fill="#2B94FC"/>
<path d="M35.775 22.0488C35.8466 21.7529 35.9231 21.4587 35.988 21.1609C36.0186 21.0214 36.0788 20.9718 36.222 21.01C36.4645 21.0749 36.7099 21.1322 36.9563 21.1818C37.1033 21.2114 37.1329 21.2841 37.0985 21.4215C37.024 21.7166 36.9619 22.0145 36.8942 22.3115C36.8817 22.3191 36.8684 22.3268 36.856 22.3344C36.5036 22.2523 36.1513 22.1692 35.7989 22.0871C35.7913 22.0746 35.7827 22.0613 35.775 22.0488Z" fill="#2B94FC"/>
<path d="M13.9476 16.9308C14.0192 16.6348 14.0957 16.3407 14.1606 16.0427C14.1912 15.9033 14.2513 15.8537 14.3945 15.8918C14.637 15.9567 14.8825 16.0141 15.1288 16.0637C15.2759 16.0933 15.3054 16.1659 15.2711 16.3034C15.1966 16.5984 15.1345 16.8964 15.0668 17.1933C15.0543 17.201 15.041 17.2086 15.0285 17.2163C14.6762 17.1342 14.3238 17.051 13.9715 16.9689C13.9639 16.9566 13.9553 16.9432 13.9476 16.9308Z" fill="#2B94FC"/>
<path d="M31.2029 13.1328C31.4989 13.2044 31.793 13.2807 32.091 13.3448C32.2294 13.3753 32.28 13.4345 32.2418 13.5787C32.1769 13.8212 32.1196 14.0667 32.0699 14.313C32.0403 14.4591 31.9687 14.4896 31.8313 14.4553C31.5361 14.3808 31.2382 14.3187 30.9422 14.2509C30.9346 14.2385 30.926 14.2251 30.9183 14.2127C31.0015 13.8603 31.0836 13.508 31.1666 13.1556C31.179 13.148 31.1924 13.1404 31.2048 13.1318L31.2029 13.1328Z" fill="#2B94FC"/>
<path d="M23.1497 11.2767C23.0676 11.629 22.9845 11.9814 22.9024 12.3337C22.89 12.3414 22.8766 12.349 22.8642 12.3567C22.5682 12.2851 22.2741 12.2096 21.9771 12.1447C21.8387 12.1142 21.7881 12.0549 21.8263 11.9107C21.8912 11.6682 21.9485 11.4228 21.9982 11.1765C22.0278 11.0303 22.0994 10.9989 22.2368 11.0332C22.5319 11.1068 22.8299 11.1698 23.1258 11.2375C23.1335 11.2509 23.1421 11.2633 23.1497 11.2767Z" fill="#2B94FC"/>
</g>
</g>
<defs>
<clipPath id="clip0_1185_37740">
<rect width="47.238" height="47.238" fill="white" transform="translate(0.761963 0.458008)"/>
</clipPath>
</defs>
</svg>
