<svg width="165" height="112" viewBox="0 0 165 112" fill="none" xmlns="http://www.w3.org/2000/svg">
<path d="M42.168 85.1249L42.3241 85.0311L42.7851 82.0702L42.0401 82.7881C41.2974 83.5042 39.7279 83.832 38.6454 83.9083C41.4959 72.2383 44.8601 55.4039 49.5069 29.5738L49.6623 28.7087L43.9077 32.249L43.8059 32.8599C42.7999 38.8842 41.7598 45.1136 40.4015 49.9397C38.9279 55.1752 37.2878 57.9888 35.3904 58.534C35.2633 58.4244 34.9101 57.8555 34.7064 54.885C34.5458 52.5482 34.5161 49.4471 34.4841 46.1637C34.4454 42.1475 34.4053 37.9954 34.1213 34.8005C33.7696 30.8378 33.102 29.0707 31.9578 29.0707C31.1191 29.0707 29.7117 29.7386 28.1943 30.8579L24.8501 33.3113C24.8843 33.0413 24.9029 32.7793 24.9029 32.5259C24.9029 30.5713 24.0739 29.1531 22.9312 29.1531C21.1059 29.1531 18.6428 30.2943 16.1737 32.2849C13.6458 34.3228 11.1961 37.1566 9.01916 40.5487C11.2608 29.0172 13.6607 15.6214 13.6607 9.04054C13.6607 6.37505 13.3403 4.6001 11.7745 4.6001C10.3418 4.6001 9.03552 5.32936 7.77234 6.03496C7.52923 6.17082 7.27867 6.31106 7.02961 6.44429L6.98574 6.46796L2.43192 10.9838L7.34187 8.86611C7.80283 9.45601 8.10022 10.3544 8.10022 12.4072C8.10022 19.4895 5.12258 35.0968 2.73006 47.6371C1.50703 54.048 0.450549 59.584 0.0988829 62.4397L0 63.2461L5.68465 59.7497L5.72703 59.5805C6.48018 56.5942 7.3835 53.6719 8.41322 50.889C11.1254 51.5499 13.283 57.5181 15.77 64.3961C17.1744 68.2817 18.7179 72.5486 20.561 76.3597C19.5439 77.8165 18.6889 79.4109 18.0011 81.1385C16.5729 84.7261 15.8495 88.9264 15.8495 93.6227C15.8495 102.707 18.9751 110.381 22.6754 110.381C23.9453 110.381 25.8263 109.624 27.7036 108.356C29.6827 107.041 31.5176 104.462 33.3139 100.469C34.8298 97.1008 36.2915 92.7857 37.7629 87.3328C39.0706 86.8446 40.5093 86.1197 42.1687 85.1249H42.168ZM22.752 80.382C25.7125 85.1354 28.9675 87.6615 32.6685 88.0674C30.0663 98.284 28.1668 104.398 27.0181 106.256C25.5899 106.133 24.2323 104.463 23.1802 101.519C22.1089 98.5216 21.494 94.5361 21.494 90.5847C21.494 87.0471 21.9386 83.4613 22.7512 80.382H22.752ZM26.0664 34.854L27.7177 33.6409C28.1236 34.3386 28.4203 35.9899 28.5995 38.5616C28.789 41.2736 28.8299 44.7139 28.8701 48.0412C28.9794 57.1622 29.1377 62.7527 30.9355 62.7527C32.7332 62.7527 36.7019 60.5877 39.1323 58.4235C37.1294 68.72 35.4863 76.5043 33.9808 82.803C31.8812 81.6276 29.9117 79.5239 28.0307 76.457C27.4114 75.4473 26.8203 74.3639 26.2545 73.2314C26.5519 72.936 26.8597 72.6854 27.1757 72.4803C27.8552 72.1191 28.792 71.8711 30.1221 71.7001L30.2084 71.6888L35.6499 67.3868L34.3161 67.5034C31.9421 67.712 29.3325 68.7489 26.3378 70.6737L26.3304 70.679C26.001 70.9034 25.6791 71.1348 25.3646 71.3732C23.8159 68.0012 22.4568 64.34 21.2055 60.9707C19.8056 57.199 18.4837 53.6369 17.1149 51.0397C15.5358 48.0412 14.0548 46.6449 12.4555 46.6449C11.573 46.6449 10.7879 46.765 9.89052 47.0472C10.8124 44.8778 12.3046 41.7338 13.8035 39.0911C16.6986 33.9862 18.0539 33.4358 18.5023 33.4358C18.8101 33.4358 19.2561 34.2229 19.2561 35.6472C19.2561 37.9919 17.5536 41.0334 14.7016 43.7831L13.3269 45.1084L18.3238 43.3334L18.3744 43.2887C20.4658 41.427 22.1713 39.4101 23.3074 37.4537C23.8955 36.4414 24.3267 35.4588 24.5914 34.5384L26.0664 34.8549V34.854Z" fill="black"/>
<path d="M68.1518 33.0291C66.9503 30.5134 65.4292 29.0698 63.9794 29.0698C62.4166 29.0698 60.291 30.1471 58.1468 32.0272C53.0004 36.5684 50.3053 52.7148 47.4518 69.8077L47.4228 69.9787C44.6333 86.5264 41.7486 103.638 37.394 109.694L36.3911 111.088L42.5671 107.84L42.6199 107.764C47.373 100.975 50.4071 82.8889 53.0844 66.9292C53.3424 65.3559 53.6041 63.7186 53.8621 62.0856L54.3699 62.3792C54.8963 62.6834 55.7669 62.75 56.0583 62.75C57.3193 62.75 59.0278 62.0716 60.746 60.8892C63.5177 59.0932 65.8663 56.1446 67.5384 52.3633C69.0953 48.8432 69.9525 44.8016 69.9525 40.9817C69.9525 38.3635 69.2789 35.3904 68.1503 33.0273L68.1518 33.0291ZM53.8799 61.9769C53.9937 61.2591 54.1067 60.5412 54.2182 59.8321C55.2145 53.5106 56.2442 46.9736 57.3059 42.0169C58.6546 35.7182 59.6642 33.9029 60.3014 33.5506C62.146 34.634 64.308 39.4329 64.308 44.0223C64.308 48.9554 62.4969 55.1164 60.0768 58.4621C59.8783 58.4428 59.6962 58.3823 59.43 58.2535L59.2665 58.1746L53.8799 61.9769Z" fill="black"/>
<path d="M105.129 29.5422L111.119 26.3814L111.17 26.3122C113.177 23.6029 114.153 21.1223 114.153 18.7294C114.153 16.7003 113.331 14.9727 112.536 13.3012C111.791 11.7348 111.087 10.2553 111.087 8.62844C111.087 7.3794 111.087 5.82884 112.601 4.40713C113.496 4.1021 114.474 3.95397 115.588 3.95397C117.51 3.95397 119.515 4.41677 121.089 5.22317C122.329 5.85864 123.904 7.01302 124.36 8.90717L124.481 9.41029L130.022 5.81832L129.99 5.53609C129.814 3.96887 128.539 2.52875 126.4 1.47956C124.483 0.539058 122.063 0 119.76 0C116.719 0 113.219 1.22449 110.398 3.27467C107.256 5.55887 105.525 8.42246 105.525 11.3386C105.525 13.5527 106.334 15.2312 107.115 16.8546C107.874 18.4297 108.591 19.9171 108.591 21.8498C108.591 23.7826 107.736 25.8827 106.119 28.1511L105.128 29.5413L105.129 29.5422Z" fill="black"/>
<path d="M116.178 58.4013C115.939 58.4784 115.713 58.5512 115.505 58.5512C113.746 58.5512 112.963 56.7798 112.963 52.8091C112.963 45.7128 115.725 33.2347 116.94 29.6419L117.29 28.605L111.45 32.1619L111.413 32.3486C110.846 35.1999 109.068 40.9253 106.768 46.351C104.348 52.058 101.989 55.9602 100.051 57.4845C100.231 55.1714 101.128 50.9176 102.071 46.443C103.194 41.1164 104.355 35.6084 104.531 32.3889V32.3617C104.531 31.2117 104.531 29.0713 103.071 29.0713C101.232 29.0713 97.4997 31.955 96.4 32.8386L95.574 33.5021L98.3784 33.772L98.6952 33.5687C98.8855 34.1139 98.8855 35.1131 98.8855 35.4821C98.8855 38.9943 97.5145 45.1492 96.3049 50.5784C95.2677 55.2336 94.3718 59.2542 94.3718 61.2675L94.3748 61.3236C94.4841 62.2711 94.8886 62.7515 95.577 62.7515C98.5093 62.7515 101.471 59.9887 103.439 57.6721C105.121 55.6911 106.566 53.4727 107.554 51.6495C107.397 53.137 107.317 54.5429 107.317 55.848C107.317 58.0192 107.568 59.6276 108.083 60.7662C108.679 62.0844 109.63 62.7523 110.908 62.7523C111.653 62.7523 112.275 62.6217 112.987 62.3167L113.029 62.2992L116.96 59.1402L116.401 58.3321L116.18 58.4031L116.178 58.4013Z" fill="black"/>
<path d="M163.463 57.9121L163.085 58.0891C162.998 58.1294 162.897 58.1312 162.737 58.1312C161.837 58.1312 160.328 57.423 160.328 52.6775C160.328 49.9498 160.739 47.7953 161.224 46.2027C162.352 42.495 162.603 38.5954 161.828 34.8088C161.166 31.5753 160.054 28.7328 158.166 28.7328C156.875 28.7328 155.332 29.1526 153.506 30.0072C153.506 30.0072 141.625 35.9676 141.244 57.6035L141.089 57.6789C140.988 57.728 140.849 57.8007 140.689 57.8858C140.322 58.0803 139.827 58.3424 139.486 58.4634C138.16 58.289 137.487 56.663 137.487 53.6303C137.487 48.8717 138.953 42.0085 140.131 36.4935C140.747 33.6071 141.28 31.1143 141.486 29.4656L141.588 28.6504L135.956 32.1757L135.932 32.3887C135.799 33.5896 135.372 35.4907 134.878 37.6925C134.461 39.549 133.991 41.6421 133.602 43.7423C132.704 43.9228 131.716 44.0149 130.661 44.0149C129.876 44.0149 129.074 43.9553 128.287 43.8878C129.136 39.5297 129.566 36.0947 129.566 33.6746C129.566 31.4465 129.414 29.0702 127.595 29.0702L127.551 29.0738C126.251 29.2666 123.47 31.074 121.437 32.6719L121.319 32.7648L120.762 35.7169L123.554 33.6238C123.719 33.9524 123.92 34.8579 123.92 36.7967C123.92 38.5708 123.64 40.7718 123.214 43.5126C123.118 43.5074 123.012 43.4995 122.897 43.4925C122.549 43.4688 122.152 43.4425 121.803 43.4425H121.697L116.198 47.7243H117.374C118.362 47.7243 119.317 47.8102 120.242 47.8926C121.007 47.961 121.737 48.0267 122.474 48.0468C121.418 53.8459 120.033 60.1077 119.344 62.1833L119.001 63.2185L124.966 59.5485V59.2961C124.966 58.5291 125.549 56.1327 126.224 53.3585C126.612 51.765 127.049 49.9708 127.444 48.2002C128.988 48.0994 130.45 47.8382 132.021 47.3833L132.089 47.364L133.026 46.555C132.399 50.1952 131.839 53.6276 131.839 56.5868C131.839 58.3845 132.067 59.8106 132.518 60.8247C133.047 62.0142 133.875 62.6619 134.979 62.7513H135.003C136.346 62.7522 140.317 60.432 140.356 60.4084L140.446 60.3549L141.234 58.835C141.285 61.7214 142.668 62.335 143.834 62.335C147.301 62.335 150.872 60.3374 154.457 56.3948C154.548 58.0742 154.761 59.2593 155.127 60.1612C155.713 61.6031 156.734 62.335 158.164 62.335C159.719 62.335 162.073 60.7003 163.338 59.822C163.543 59.68 163.719 59.5573 163.846 59.474L164.118 59.2961L163.46 57.9129L163.463 57.9121ZM156.746 41.6316C156.471 44.2594 155.271 48.1582 153.654 51.6134C151.788 55.5963 149.777 58.0926 148.402 58.1312C147.36 58.1268 147.14 56.6814 147.14 55.4692C147.14 49.5396 147.14 38.1685 153.506 32.9348C155.767 31.0757 156.943 37.1123 156.97 39.1502C156.97 39.1502 156.92 40.4404 156.747 41.6316H156.746Z" fill="black"/>
<path d="M91.6739 58.0912C91.5877 58.1315 91.4866 58.1333 91.3267 58.1333C90.4271 58.1333 88.9171 57.425 88.9171 52.6796C88.9171 49.9519 89.3283 47.7974 89.813 46.2047C90.9409 42.4971 91.1922 38.5974 90.4175 34.8109C89.7558 31.5774 88.6435 28.7349 86.7558 28.7349C85.4644 28.7349 83.9217 29.1547 82.0957 30.0093C82.0957 30.0093 69.8238 36.1651 69.8238 58.6741C69.8238 61.7007 71.2379 62.3362 72.4252 62.3362C75.8928 62.3362 79.4638 60.3386 83.0488 56.396C83.1395 58.0754 83.3522 59.2605 83.7187 60.1624C84.3046 61.6043 85.3254 62.3362 86.7551 62.3362C88.3104 62.3362 90.6643 60.7015 91.9297 59.8232C92.1341 59.6812 92.3104 59.5585 92.4375 59.4752L92.7096 59.2973L92.0516 57.9141L91.6732 58.0912H91.6739ZM85.3358 41.6337C85.0607 44.2615 83.8607 48.1603 82.2429 51.6155C80.3775 55.5984 78.3664 58.0947 76.9917 58.1333C75.9493 58.1289 75.7293 56.6835 75.7293 55.4713C75.7293 49.5416 75.7293 38.1706 82.0957 32.9369C84.3566 31.0778 85.532 37.1144 85.5596 39.1523C85.5596 39.1523 85.509 40.4425 85.3365 41.6337H85.3358Z" fill="black"/>
</svg>
