<svg width="230" height="112" viewBox="0 0 230 112" fill="none" xmlns="http://www.w3.org/2000/svg">
<g clip-path="url(#clip0_1185_37739)">
<mask id="mask0_1185_37739" style="mask-type:luminance" maskUnits="userSpaceOnUse" x="182" y="21" width="48" height="48">
<path d="M230 21.458H182.762V68.696H230V21.458Z" fill="white"/>
</mask>
<g mask="url(#mask0_1185_37739)">
<path d="M206.412 63.904C204.827 63.904 203.232 63.7026 201.658 63.2939C196.792 62.0325 192.709 58.9521 190.16 54.6188C187.612 50.2855 186.902 45.2199 188.164 40.3548C189.425 35.4887 192.505 31.4056 196.839 28.857C201.171 26.3084 206.236 25.599 211.102 26.8603C215.968 28.1218 220.051 31.2022 222.6 35.5354C225.148 39.8678 225.858 44.9344 224.597 49.7995C223.335 54.6656 220.255 58.7487 215.922 61.2973C212.991 63.0208 209.724 63.904 206.412 63.904ZM206.382 30.1719C199.755 30.1719 193.691 34.6312 191.953 41.3373C189.891 49.2925 194.685 57.4424 202.64 59.504C206.493 60.5028 210.506 59.9413 213.937 57.9227C217.368 55.9041 219.809 52.6699 220.808 48.817C221.806 44.963 221.245 40.9516 219.226 37.5197C217.208 34.0888 213.974 31.6481 210.121 30.6493C208.872 30.3256 207.617 30.171 206.383 30.171L206.382 30.1719Z" fill="#FFCE00"/>
<path d="M228.798 62.1793C228.07 62.2384 227.399 62.3711 226.838 62.4934H226.833C223.953 63.1513 221.206 62.755 219.298 61.4067C218.5 60.8243 211.464 50.9269 207.519 44.2418C204.001 38.2776 200.285 30.7875 199.065 28.3259C198.774 27.7377 198.719 27.6297 198.692 27.5829C197.097 24.9016 194.934 23.2669 192.435 22.8553C189.951 22.4457 187.353 23.2736 185.118 25.1861C184.547 25.6751 184.027 26.207 183.527 26.8143L182.762 27.7443L183.963 27.6469C184.69 27.5877 185.362 27.455 185.927 27.3308C188.807 26.6739 191.554 27.0702 193.463 28.4185C194.221 28.9599 202.042 38.564 205.941 45.1719C208.361 49.2731 211.189 55.1981 213.905 61.8584C214.009 62.1144 214.031 62.1678 214.046 62.1993C215.36 64.9981 217.273 66.7436 219.581 67.2449C220.051 67.3471 220.535 67.3977 221.029 67.3977C223.188 67.3977 225.527 66.4351 227.641 64.6409L227.653 64.6314C228.316 64.0346 228.803 63.5352 229.234 63.0119L230 62.0819L228.798 62.1793Z" fill="#FFCE00"/>
<path d="M226.103 23.8161L226.093 23.8046C225.496 23.1419 224.997 22.654 224.474 22.2233L223.544 21.4575L223.641 22.6588C223.7 23.3864 223.833 24.0577 223.955 24.6182V24.6229C224.613 27.5029 224.217 30.2501 222.868 32.1589C222.286 32.9562 212.389 39.9928 205.704 43.9373C199.741 47.4561 192.25 51.1716 189.788 52.3919C189.2 52.6832 189.092 52.7376 189.045 52.7653C186.364 54.3599 184.729 56.5227 184.318 59.0217C183.909 61.5062 184.737 64.1045 186.649 66.3389C187.138 66.9099 187.669 67.4303 188.276 67.9297L189.206 68.6955L189.108 67.4943C189.049 66.7667 188.916 66.0954 188.793 65.5301C188.136 62.6502 188.533 59.903 189.881 57.9941C190.422 57.236 200.026 49.4146 206.634 45.5157C210.733 43.0971 216.659 40.2687 223.318 37.553C223.576 37.448 223.63 37.426 223.66 37.4117C226.459 36.0978 228.204 34.1842 228.706 31.8762C229.255 29.3516 228.305 26.4143 226.102 23.8171L226.103 23.8161Z" fill="#FFCE00"/>
<path d="M217.51 49.0613C217.213 48.9906 216.918 48.9152 216.62 48.8522C216.475 48.8216 216.439 48.752 216.476 48.6135C216.539 48.3767 216.585 48.1361 216.646 47.8983C216.677 47.7808 216.657 47.714 216.525 47.6834C215.299 47.3989 214.074 47.1115 212.849 46.8212C212.719 46.7906 212.669 46.8374 212.643 46.9577C212.594 47.1907 212.542 47.4247 212.478 47.6538C212.44 47.7942 212.475 47.8611 212.622 47.8906C212.862 47.9383 213.098 48.0052 213.338 48.0548C213.471 48.0826 213.514 48.1436 213.478 48.2784C213.406 48.5609 213.342 48.8455 213.277 49.1301C213.247 49.2609 213.173 49.3039 213.045 49.2733C212.387 49.1186 211.729 48.9649 211.071 48.8121C210.941 48.7825 210.896 48.7147 210.93 48.5829C210.999 48.307 211.056 48.0271 211.127 47.7512C211.162 47.6175 211.125 47.5584 210.99 47.5287C210.55 47.4313 210.113 47.3196 209.673 47.225C209.513 47.1907 209.468 47.121 209.512 46.9634C209.577 46.7276 209.623 46.486 209.683 46.2483C209.712 46.1318 209.675 46.0763 209.56 46.0516C209.313 45.999 209.068 45.9426 208.824 45.8787C208.696 45.8453 208.643 45.8902 208.617 46.0133C208.566 46.253 208.501 46.4898 208.452 46.7305C208.423 46.867 208.368 46.9167 208.22 46.8851C207.803 46.7963 207.798 46.8011 207.683 47.225C207.647 47.3617 207.581 47.3903 207.454 47.3578C207.216 47.2967 206.976 47.2499 206.739 47.1869C206.61 47.1525 206.541 47.1792 206.514 47.3196C206.465 47.5602 206.408 47.799 206.346 48.0357C206.315 48.1589 206.346 48.2201 206.474 48.2468C206.714 48.2965 206.951 48.3633 207.19 48.411C207.341 48.4407 207.385 48.5075 207.347 48.6593C207.237 49.0966 207.144 49.5369 207.034 49.9742C206.999 50.1165 207.034 50.1804 207.179 50.2091C207.445 50.2625 207.707 50.336 207.973 50.3906C208.102 50.4173 208.148 50.4697 208.128 50.6063C208.074 50.9816 207.962 51.3425 207.882 51.7121C207.817 52.01 207.74 52.305 207.674 52.603C207.645 52.7328 207.581 52.7797 207.447 52.7462C207.158 52.6737 206.868 52.6058 206.576 52.5409C206.46 52.5151 206.427 52.454 206.455 52.3404C206.516 52.0959 206.564 51.8486 206.63 51.6051C206.669 51.461 206.623 51.3998 206.482 51.3722C206.248 51.3263 206.016 51.269 205.785 51.2098C205.666 51.1792 205.602 51.2031 205.571 51.3339C205.286 52.561 204.999 53.786 204.709 55.0112C204.677 55.143 204.729 55.1907 204.847 55.2155C205.087 55.2671 205.324 55.3311 205.563 55.3807C205.704 55.4094 205.75 55.4724 205.713 55.6157C205.637 55.9107 205.574 56.2086 205.505 56.5056C205.493 56.5132 205.479 56.5208 205.467 56.5294C205.172 56.4597 204.877 56.3853 204.581 56.3213C204.44 56.2917 204.4 56.2306 204.431 56.0864C204.524 55.6519 204.519 55.651 204.091 55.5507C203.898 55.5058 203.704 55.4657 203.513 55.4132C203.379 55.376 203.311 55.4018 203.274 55.5507C203.166 55.9881 203.16 55.9861 202.713 55.8811C202.508 55.8333 202.302 55.7856 202.096 55.7389C202.089 55.7254 202.081 55.7131 202.072 55.6996C202.141 55.4094 202.218 55.121 202.276 54.8288C202.309 54.6655 202.385 54.6273 202.539 54.6703C202.768 54.7343 203.004 54.7773 203.234 54.8374C203.353 54.868 203.419 54.847 203.449 54.7152C203.734 53.4891 204.021 52.2631 204.311 51.0379C204.337 50.9272 204.316 50.8622 204.195 50.8365C203.943 50.782 203.691 50.7238 203.441 50.6598C203.319 50.6292 203.273 50.6798 203.249 50.7906C203.195 51.037 203.13 51.2804 203.079 51.5268C203.051 51.6577 202.992 51.7044 202.856 51.6691C202.574 51.5965 202.29 51.5306 202.006 51.4696C201.871 51.4408 201.834 51.3692 201.864 51.2413C202.022 50.5777 202.179 49.9131 202.332 49.2484C202.362 49.1215 202.427 49.09 202.547 49.1205C202.811 49.1864 203.078 49.237 203.34 49.3105C203.504 49.3564 203.578 49.322 203.615 49.1463C203.703 48.7185 203.816 48.2955 203.908 47.8677C203.941 47.7111 204.005 47.6567 204.167 47.7016C204.403 47.7674 204.645 47.8123 204.883 47.8725C204.996 47.9011 205.056 47.8725 205.082 47.7532C205.135 47.5068 205.192 47.2613 205.255 47.0179C205.287 46.8937 205.252 46.8346 205.125 46.8078C204.879 46.7563 204.635 46.6894 204.39 46.6378C204.256 46.6101 204.223 46.5471 204.249 46.4134C204.335 45.9904 204.333 45.9847 203.914 45.8739C203.782 45.8386 203.742 45.7803 203.777 45.6485C203.84 45.4051 203.889 45.1577 203.952 44.9143C203.984 44.7892 203.945 44.731 203.82 44.7052C203.58 44.6555 203.34 44.6001 203.105 44.5371C202.968 44.5008 202.912 44.5476 202.885 44.6794C202.837 44.9133 202.77 45.1425 202.726 45.3764C202.694 45.5416 202.617 45.5741 202.461 45.534C202.044 45.428 201.621 45.3439 201.205 45.2323C201.015 45.1816 200.945 45.236 200.912 45.4213C200.866 45.6753 200.794 45.9245 200.739 46.1766C200.709 46.315 200.636 46.3647 200.498 46.3313C199.847 46.1776 199.195 46.0248 198.543 45.8758C198.408 45.8443 198.353 45.7813 198.39 45.6371C198.462 45.3544 198.529 45.0709 198.589 44.7854C198.619 44.6478 198.687 44.6173 198.816 44.6507C199.053 44.7118 199.295 44.7596 199.532 44.8217C199.659 44.855 199.73 44.8322 199.758 44.6908C199.806 44.4502 199.864 44.2124 199.925 43.9747C199.956 43.8534 199.928 43.7923 199.799 43.7627C198.573 43.4781 197.348 43.1907 196.124 42.9004C195.991 42.8689 195.945 42.9215 195.92 43.0398C195.869 43.2795 195.805 43.5163 195.755 43.756C195.726 43.8973 195.662 43.9422 195.52 43.905C195.225 43.8295 194.927 43.7655 194.63 43.6967C194.623 43.6834 194.615 43.671 194.606 43.6576C194.676 43.3626 194.751 43.0675 194.814 42.7715C194.844 42.6311 194.907 42.592 195.049 42.6225C195.483 42.7142 195.484 42.7095 195.584 42.2817C195.629 42.0888 195.669 41.8949 195.722 41.704C195.759 41.5684 195.732 41.5015 195.584 41.4652C195.148 41.3573 195.15 41.3516 195.254 40.9037C195.301 40.6984 195.349 40.4922 195.397 40.2869C195.409 40.2793 195.423 40.2716 195.435 40.263C195.731 40.3337 196.027 40.4082 196.325 40.4722C196.47 40.5027 196.507 40.5715 196.469 40.7108C196.406 40.9477 196.359 41.1883 196.298 41.4261C196.269 41.5435 196.287 41.6103 196.42 41.6419C197.646 41.9264 198.871 42.2138 200.095 42.5032C200.206 42.5289 200.271 42.5098 200.296 42.3877C200.351 42.1346 200.41 41.8835 200.473 41.6333C200.504 41.512 200.454 41.4652 200.343 41.4404C200.098 41.3869 199.854 41.322 199.608 41.2704C199.478 41.2427 199.429 41.1845 199.465 41.0489C199.537 40.7663 199.604 40.4827 199.664 40.1972C199.696 40.0491 199.776 40.0214 199.909 40.0539C200.559 40.2095 201.21 40.3643 201.861 40.5152C202 40.5476 202.046 40.6182 202.009 40.7586C201.944 41.0155 201.896 41.2771 201.823 41.5312C201.776 41.6954 201.812 41.7698 201.987 41.8061C202.415 41.8949 202.838 42.0076 203.265 42.0992C203.422 42.1327 203.476 42.1966 203.431 42.358C203.365 42.5939 203.32 42.8355 203.26 43.0733C203.232 43.1859 203.26 43.247 203.38 43.2728C203.626 43.3254 203.871 43.3826 204.115 43.4456C204.239 43.4781 204.298 43.4428 204.325 43.3158C204.376 43.0694 204.443 42.826 204.495 42.5796C204.523 42.4459 204.586 42.4124 204.719 42.4392C205.141 42.5251 205.147 42.5223 205.259 42.1041C205.294 41.9713 205.354 41.9332 205.485 41.9665C205.729 42.0295 205.976 42.0783 206.219 42.1413C206.345 42.1738 206.402 42.1336 206.428 42.0085C206.478 41.7689 206.533 41.5292 206.596 41.2924C206.633 41.1549 206.584 41.0995 206.453 41.0728C206.233 41.0279 206.017 40.9591 205.794 40.9238C205.588 40.8914 205.557 40.7977 205.606 40.6096C205.712 40.2134 205.798 39.8104 205.891 39.4113C205.93 39.2439 205.863 39.1398 205.69 39.0991C205.445 39.0408 205.202 38.9787 204.955 38.9281C204.811 38.8985 204.773 38.825 204.805 38.6874C204.963 38.0305 205.118 37.3726 205.269 36.7137C205.301 36.5782 205.367 36.5438 205.497 36.5763C205.779 36.6479 206.063 36.7147 206.347 36.7758C206.485 36.8054 206.515 36.8741 206.482 37.003C206.421 37.2399 206.373 37.4814 206.311 37.7183C206.278 37.8453 206.301 37.9169 206.442 37.9446C206.681 37.9923 206.92 38.0506 207.158 38.1117C207.279 38.1432 207.34 38.1145 207.371 37.9857C207.655 36.7595 207.943 35.5335 208.233 34.3093C208.265 34.1766 208.211 34.1308 208.094 34.1059C207.854 34.0544 207.617 33.9904 207.378 33.9408C207.236 33.9121 207.191 33.8482 207.229 33.7059C207.304 33.4107 207.368 33.1129 207.437 32.8159C207.449 32.8083 207.463 32.8006 207.475 32.793C207.77 32.8627 208.064 32.9371 208.361 33.0011C208.501 33.0308 208.542 33.0919 208.511 33.2361C208.418 33.6706 208.424 33.6715 208.851 33.7717C209.044 33.8166 209.238 33.8567 209.429 33.9092C209.563 33.9465 209.631 33.9217 209.668 33.7727C209.776 33.3354 209.782 33.3372 210.229 33.4414C210.434 33.4891 210.64 33.5358 210.846 33.5836C210.853 33.596 210.862 33.6094 210.87 33.6218C210.799 33.9187 210.723 34.2139 210.66 34.5118C210.63 34.6569 210.56 34.6922 210.422 34.6559C210.185 34.5929 209.944 34.5462 209.707 34.485C209.589 34.4545 209.522 34.4745 209.492 34.6063C209.207 35.8324 208.92 37.0585 208.629 38.2835C208.599 38.4134 208.645 38.464 208.766 38.4898C208.999 38.5385 209.232 38.5911 209.462 38.6541C209.601 38.6922 209.669 38.6588 209.699 38.5108C209.746 38.2702 209.813 38.0343 209.863 37.7937C209.891 37.6619 209.952 37.618 210.087 37.6523C210.369 37.7249 210.653 37.7908 210.938 37.852C211.056 37.8768 211.091 37.935 211.066 38.0477C211.045 38.1442 211.039 38.2444 211.017 38.3409C210.889 38.8899 210.759 39.4371 210.629 39.9852C210.572 40.2296 210.56 40.2372 210.323 40.1828C210.071 40.1246 209.818 40.0711 209.569 40.0042C209.427 39.9661 209.366 40.0072 209.334 40.1504C209.238 40.5906 209.126 41.0269 209.03 41.4671C208.997 41.6199 208.929 41.661 208.78 41.6209C208.544 41.5569 208.303 41.511 208.065 41.4499C207.939 41.4175 207.883 41.4576 207.856 41.5817C207.805 41.8214 207.751 42.0611 207.688 42.2979C207.651 42.4354 207.699 42.4908 207.83 42.5175C208.051 42.5624 208.268 42.6311 208.489 42.6665C208.695 42.699 208.725 42.7925 208.677 42.9806C208.57 43.397 208.543 43.3396 208.965 43.4314C209.146 43.4705 209.212 43.5383 209.155 43.7273C209.09 43.9422 209.054 44.1666 208.995 44.3843C208.958 44.5227 208.988 44.5934 209.136 44.622C209.37 44.6669 209.602 44.7233 209.833 44.7854C209.964 44.8207 210.028 44.7854 210.056 44.6488C210.105 44.4081 210.172 44.1723 210.22 43.9317C210.249 43.7894 210.315 43.7493 210.457 43.7837C210.894 43.8925 211.335 43.9861 211.772 44.0968C211.924 44.1351 211.989 44.0968 212.019 43.9431C212.072 43.6767 212.145 43.4142 212.202 43.1487C212.23 43.0122 212.29 42.9539 212.436 42.9883C213.092 43.1458 213.75 43.3005 214.408 43.4552C214.535 43.4848 214.586 43.5497 214.552 43.6834C214.48 43.9727 214.412 44.263 214.348 44.5543C214.322 44.6708 214.261 44.7042 214.149 44.6765C213.904 44.6154 213.657 44.5676 213.414 44.5018C213.27 44.4626 213.209 44.5065 213.181 44.6497C213.135 44.8837 213.078 45.1158 213.019 45.3469C212.988 45.4662 213.011 45.5311 213.142 45.5608C214.368 45.8453 215.593 46.1327 216.818 46.4229C216.949 46.4545 216.998 46.4048 217.024 46.2845C217.073 46.0516 217.138 45.8214 217.183 45.5875C217.214 45.429 217.281 45.3783 217.443 45.4213C217.73 45.4987 218.023 45.5588 218.314 45.6257C218.321 45.639 218.33 45.6514 218.338 45.6638C218.268 45.9589 218.192 46.2539 218.129 46.551C218.1 46.6913 218.038 46.7314 217.894 46.7009C217.461 46.6082 217.459 46.614 217.359 47.0408C217.314 47.2336 217.274 47.4275 217.221 47.6184C217.184 47.7532 217.21 47.8209 217.359 47.8581C217.795 47.966 217.794 47.9718 217.689 48.4196C217.641 48.6249 217.594 48.8312 217.547 49.0375C217.535 49.0451 217.522 49.0527 217.51 49.0613ZM207.55 44.8989C207.619 44.603 207.685 44.3051 207.76 44.01C207.791 43.8859 207.755 43.8285 207.63 43.7999C207.023 43.6615 206.418 43.5192 205.813 43.374C205.697 43.3463 205.642 43.3798 205.615 43.4963C205.476 44.1026 205.334 44.709 205.188 45.3134C205.159 45.4385 205.193 45.4948 205.318 45.5234C205.918 45.66 206.517 45.8003 207.115 45.9456C207.249 45.978 207.309 45.9426 207.338 45.808C207.402 45.5034 207.479 45.2016 207.55 44.8989Z" fill="#2B94FC"/>
<path d="M194.055 46.0116C193.727 45.9343 193.399 45.8521 193.069 45.7805C192.927 45.75 192.882 45.6821 192.916 45.5428C193.073 44.8858 193.229 44.2279 193.38 43.569C193.411 43.4362 193.473 43.3962 193.604 43.4276C193.939 43.5088 194.276 43.5824 194.611 43.6587C194.618 43.6712 194.626 43.6845 194.635 43.6979C194.454 44.4618 194.274 45.2257 194.093 45.9887C194.081 45.9964 194.068 46.003 194.055 46.0116Z" fill="#2B94FC"/>
<path d="M205.126 32.237C205.202 31.9152 205.286 31.5944 205.352 31.2698C205.387 31.0959 205.469 31.0597 205.632 31.0998C206.262 31.2545 206.893 31.4035 207.526 31.5476C207.69 31.5849 207.746 31.6565 207.702 31.8255C207.619 32.1454 207.552 32.47 207.478 32.7928C207.466 32.8004 207.453 32.808 207.44 32.8157C206.676 32.6352 205.913 32.4548 205.15 32.2752C205.142 32.2619 205.133 32.2504 205.126 32.237Z" fill="#2B94FC"/>
<path d="M210.85 33.585C210.929 33.2565 211.013 32.929 211.085 32.5996C211.117 32.4487 211.188 32.4038 211.337 32.4391C211.987 32.5966 212.637 32.7495 213.29 32.9013C213.43 32.9337 213.47 33.0072 213.435 33.1457C213.353 33.4733 213.28 33.8037 213.204 34.1322L213.165 34.156C212.401 33.9784 211.638 33.8007 210.874 33.6232C210.866 33.6107 210.858 33.5974 210.85 33.585Z" fill="#2B94FC"/>
<path d="M195.4 40.2851C195.079 40.2078 194.758 40.1247 194.434 40.055C194.28 40.0216 194.22 39.9586 194.26 39.7953C194.419 39.145 194.572 38.4938 194.72 37.8416C194.753 37.6935 194.826 37.6659 194.961 37.7003C195.289 37.7824 195.619 37.855 195.948 37.9304C195.955 37.9428 195.964 37.9562 195.971 37.9686C195.794 38.7325 195.616 39.4974 195.438 40.2613C195.425 40.2689 195.413 40.2765 195.4 40.2851Z" fill="#2B94FC"/>
<path d="M207.822 57.085C207.748 57.401 207.666 57.7152 207.601 58.0331C207.564 58.2051 207.49 58.2652 207.31 58.2223C206.687 58.0694 206.061 57.9234 205.434 57.7849C205.246 57.7439 205.203 57.6588 205.252 57.4774C205.336 57.1642 205.399 56.8453 205.471 56.5293C205.484 56.5216 205.497 56.514 205.509 56.5054C206.272 56.6858 207.036 56.8653 207.799 57.0459C207.807 57.0582 207.815 57.0716 207.823 57.084L207.822 57.085Z" fill="#2B94FC"/>
<path d="M199.784 55.166C200.548 55.3436 201.312 55.5212 202.076 55.6989C202.083 55.7113 202.091 55.7247 202.1 55.7381C202.022 56.0599 201.939 56.3807 201.87 56.7044C201.833 56.8724 201.752 56.9183 201.587 56.8782C200.957 56.7253 200.325 56.5783 199.691 56.4361C199.525 56.3988 199.475 56.3253 199.519 56.1573C199.603 55.8374 199.671 55.5126 199.746 55.1899C199.758 55.1823 199.772 55.1746 199.784 55.166Z" fill="#2B94FC"/>
<path d="M216.976 51.3512C217.153 50.5874 217.332 49.8234 217.51 49.0586C217.522 49.0509 217.535 49.0433 217.548 49.0347C217.863 49.1102 218.175 49.1971 218.493 49.2581C218.664 49.2906 218.714 49.368 218.677 49.5275C218.57 49.9906 218.465 50.4546 218.358 50.9187C218.318 51.0925 218.27 51.2643 218.238 51.44C218.209 51.6062 218.136 51.6616 217.965 51.6167C217.646 51.5327 217.322 51.4649 217.001 51.3895C216.993 51.3761 216.984 51.3637 216.977 51.3503L216.976 51.3512Z" fill="#2B94FC"/>
<path d="M218.894 43.312C219.216 43.3884 219.536 43.4696 219.859 43.5374C219.995 43.5661 220.047 43.6195 220.023 43.7646C219.951 44.202 219.825 44.6269 219.732 45.0594C219.681 45.2915 219.62 45.5216 219.569 45.7546C219.541 45.8854 219.474 45.9275 219.342 45.895C219.008 45.8138 218.673 45.7403 218.338 45.6648C218.33 45.6525 218.321 45.6391 218.314 45.6267C218.494 44.8627 218.675 44.0998 218.855 43.3359C218.868 43.3283 218.881 43.3206 218.893 43.313L218.894 43.312Z" fill="#2B94FC"/>
<path d="M208.045 55.9892C207.723 55.9128 207.403 55.8316 207.079 55.7629C206.925 55.7304 206.865 55.6655 206.907 55.5031C206.982 55.2157 207.049 54.9255 207.112 54.6352C207.14 54.5073 207.195 54.4528 207.331 54.4871C207.62 54.5607 207.909 54.6275 208.199 54.6915C208.324 54.7192 208.359 54.7812 208.329 54.9035C208.243 55.2568 208.164 55.611 208.082 55.9653C208.07 55.973 208.057 55.9806 208.045 55.9892Z" fill="#2B94FC"/>
<path d="M215.88 51.1292C215.534 51.047 215.187 50.9611 214.84 50.8847C214.7 50.8542 214.654 50.7931 214.691 50.6498C214.762 50.3748 214.826 50.0979 214.886 49.82C214.915 49.6815 214.981 49.6281 215.121 49.6634C215.416 49.7369 215.711 49.8076 216.007 49.8745C216.15 49.907 216.182 49.9852 216.149 50.1209C216.068 50.4474 215.995 50.7768 215.919 51.1044C215.906 51.112 215.893 51.1206 215.88 51.1292Z" fill="#2B94FC"/>
<path d="M195.149 46.2355C195.226 45.9079 195.309 45.5813 195.38 45.252C195.412 45.0991 195.488 45.0581 195.633 45.0944C195.921 45.1669 196.21 45.2357 196.5 45.3016C196.639 45.3331 196.681 45.4066 196.646 45.545C196.574 45.8268 196.509 46.1094 196.447 46.394C196.419 46.52 196.355 46.5515 196.234 46.5219C195.881 46.4359 195.527 46.3567 195.173 46.2746C195.165 46.2613 195.156 46.2488 195.149 46.2355Z" fill="#2B94FC"/>
<path d="M212.941 35.2505C212.859 35.5981 212.772 35.9438 212.696 36.2933C212.666 36.4346 212.603 36.4775 212.46 36.4412C212.18 36.3677 211.895 36.3038 211.612 36.2407C211.487 36.2131 211.448 36.1462 211.477 36.0269C211.55 35.7184 211.626 35.41 211.694 35.1006C211.722 34.9698 211.797 34.9507 211.912 34.9793C212.247 35.0595 212.582 35.135 212.916 35.2133C212.924 35.2266 212.932 35.239 212.94 35.2524L212.941 35.2505Z" fill="#2B94FC"/>
<path d="M217.8 43.0864C217.724 43.4082 217.642 43.7281 217.574 44.0509C217.537 44.22 217.454 44.2658 217.291 44.2228C217.01 44.1502 216.726 44.0872 216.442 44.0242C216.315 43.9955 216.265 43.9315 216.298 43.7978C216.371 43.5095 216.438 43.2201 216.501 42.9299C216.529 42.8048 216.591 42.7704 216.713 42.8C217.066 42.886 217.421 42.9652 217.774 43.0473C217.782 43.0597 217.791 43.0731 217.798 43.0855L217.8 43.0864Z" fill="#2B94FC"/>
<path d="M197.067 38.1938C197.413 38.2759 197.76 38.3619 198.109 38.4383C198.249 38.4689 198.294 38.5309 198.257 38.6732C198.186 38.9415 198.123 39.2117 198.066 39.483C198.034 39.6386 197.958 39.693 197.8 39.6539C197.518 39.5823 197.235 39.5173 196.951 39.4572C196.801 39.4247 196.761 39.3493 196.798 39.2012C196.882 38.8746 196.953 38.5452 197.029 38.2177C197.042 38.2101 197.055 38.2024 197.068 38.1948L197.067 38.1938Z" fill="#2B94FC"/>
<path d="M204.903 33.3325C205.231 33.4099 205.559 33.491 205.888 33.5636C206.007 33.5894 206.052 33.6371 206.034 33.767C205.992 34.0965 205.889 34.4125 205.818 34.7343C205.797 34.8298 205.731 34.8593 205.637 34.8365C205.335 34.7649 205.033 34.6913 204.729 34.6245C204.589 34.5939 204.596 34.5061 204.622 34.3992C204.704 34.0516 204.785 33.703 204.866 33.3554C204.878 33.3478 204.891 33.3402 204.903 33.3325Z" fill="#2B94FC"/>
<path d="M200.007 54.0727C200.09 53.7251 200.176 53.3785 200.253 53.029C200.284 52.8858 200.35 52.8466 200.491 52.8839C200.766 52.9555 201.043 53.0185 201.321 53.0796C201.429 53.1034 201.476 53.1455 201.461 53.2687C201.421 53.6058 201.317 53.9276 201.241 54.2561C201.212 54.383 201.113 54.3639 201.018 54.3419C200.689 54.2656 200.361 54.1892 200.032 54.1127C200.025 54.0994 200.017 54.087 200.008 54.0736L200.007 54.0727Z" fill="#2B94FC"/>
<path d="M219.639 47.7644C219.605 47.9124 219.566 48.0595 219.536 48.2085C219.512 48.3306 219.452 48.3736 219.327 48.3422C219.071 48.2772 218.814 48.2171 218.556 48.1616C218.429 48.1349 218.398 48.069 218.428 47.9488C218.504 47.6412 218.576 47.3318 218.645 47.0225C218.67 46.9098 218.725 46.8678 218.842 46.8964C219.105 46.9614 219.368 47.0235 219.633 47.0817C219.75 47.1075 219.781 47.1705 219.752 47.2822C219.711 47.4417 219.676 47.6031 219.639 47.7644Z" fill="#2B94FC"/>
<path d="M194.41 41.8377C194.373 41.9924 194.334 42.1461 194.302 42.3009C194.278 42.4144 194.22 42.4555 194.105 42.4269C193.842 42.3619 193.579 42.2998 193.314 42.2416C193.197 42.2158 193.167 42.1528 193.195 42.041C193.27 41.7327 193.343 41.4242 193.412 41.1148C193.438 40.9926 193.497 40.9497 193.622 40.9811C193.878 41.0461 194.135 41.1062 194.393 41.1617C194.52 41.1893 194.553 41.2552 194.52 41.3756C194.479 41.5283 194.447 41.6839 194.41 41.8387L194.41 41.8377Z" fill="#2B94FC"/>
<path d="M203.379 57.8316C203.218 57.7944 203.058 57.7552 202.896 57.7189C202.8 57.697 202.767 57.6426 202.789 57.5461C202.855 57.2701 202.92 56.9932 202.984 56.7163C203.007 56.616 203.069 56.5931 203.161 56.615C203.482 56.6915 203.803 56.7669 204.125 56.8405C204.231 56.8643 204.266 56.9216 204.24 57.0266C204.174 57.2959 204.111 57.5661 204.05 57.8363C204.025 57.9462 203.961 57.97 203.86 57.9453C203.699 57.9051 203.54 57.8688 203.379 57.8316Z" fill="#2B94FC"/>
<path d="M209.567 31.4885C209.722 31.5248 209.875 31.5639 210.03 31.5964C210.143 31.6203 210.185 31.6766 210.156 31.7931C210.091 32.0557 210.029 32.3192 209.971 32.5837C209.945 32.7012 209.882 32.7307 209.77 32.704C209.463 32.6286 209.154 32.5561 208.844 32.4873C208.723 32.4605 208.678 32.4033 208.71 32.2781C208.775 32.0223 208.836 31.7644 208.892 31.5066C208.919 31.3806 208.985 31.3462 209.105 31.3787C209.258 31.4197 209.413 31.4522 209.567 31.4885Z" fill="#2B94FC"/>
<path d="M216.999 51.3915C216.928 51.6875 216.851 51.9825 216.787 52.2794C216.757 52.4179 216.698 52.4686 216.553 52.4303C216.311 52.3654 216.065 52.3082 215.819 52.2585C215.673 52.2289 215.643 52.1573 215.677 52.0197C215.751 51.7247 215.813 51.4268 215.881 51.1298C215.894 51.1222 215.907 51.1146 215.919 51.106C216.272 51.1881 216.624 51.2711 216.975 51.3532C216.983 51.3657 216.991 51.378 216.999 51.3915Z" fill="#2B94FC"/>
<path d="M195.174 46.2728C195.102 46.5688 195.026 46.8639 194.962 47.1609C194.931 47.2993 194.872 47.3499 194.728 47.3118C194.485 47.2468 194.24 47.1895 193.994 47.1398C193.847 47.1102 193.817 47.0386 193.851 46.9012C193.926 46.606 193.988 46.3081 194.056 46.0112C194.068 46.0036 194.081 45.9959 194.094 45.9873C194.446 46.0694 194.799 46.1525 195.15 46.2346C195.158 46.248 195.166 46.2595 195.174 46.2728Z" fill="#2B94FC"/>
<path d="M199.745 55.1917C199.449 55.1201 199.155 55.0446 198.858 54.9797C198.72 54.9492 198.669 54.8899 198.708 54.7457C198.772 54.5032 198.83 54.2578 198.879 54.0114C198.909 53.8653 198.981 53.8338 199.118 53.8682C199.413 53.9418 199.711 54.0048 200.007 54.0725C200.015 54.085 200.022 54.0983 200.031 54.1117C199.949 54.464 199.866 54.8164 199.784 55.1687C199.771 55.1764 199.758 55.1831 199.745 55.1917Z" fill="#2B94FC"/>
<path d="M207.798 57.0473C207.881 56.6949 207.963 56.3426 208.046 55.9902C208.059 55.9826 208.072 55.9749 208.084 55.9663C208.38 56.0379 208.674 56.1134 208.972 56.1783C209.111 56.2089 209.161 56.2681 209.123 56.4123C209.058 56.6548 209.001 56.9002 208.951 57.1466C208.922 57.2927 208.85 57.3233 208.713 57.2889C208.418 57.2144 208.12 57.1524 207.824 57.0845C207.816 57.0722 207.807 57.0587 207.8 57.0464L207.798 57.0473Z" fill="#2B94FC"/>
<path d="M217.775 43.0488C217.847 42.7529 217.923 42.4587 217.988 42.1609C218.019 42.0214 218.079 41.9718 218.222 42.01C218.465 42.0749 218.71 42.1322 218.956 42.1818C219.103 42.2114 219.133 42.2841 219.099 42.4215C219.024 42.7166 218.962 43.0145 218.894 43.3115C218.882 43.3191 218.868 43.3268 218.856 43.3344C218.504 43.2523 218.151 43.1692 217.799 43.0871C217.791 43.0746 217.783 43.0613 217.775 43.0488Z" fill="#2B94FC"/>
<path d="M195.948 37.9308C196.019 37.6348 196.096 37.3407 196.161 37.0427C196.191 36.9033 196.251 36.8537 196.395 36.8918C196.637 36.9567 196.882 37.0141 197.129 37.0637C197.276 37.0933 197.305 37.1659 197.271 37.3034C197.197 37.5984 197.135 37.8964 197.067 38.1933C197.054 38.201 197.041 38.2086 197.029 38.2163C196.676 38.1342 196.324 38.051 195.972 37.9689C195.964 37.9566 195.955 37.9432 195.948 37.9308Z" fill="#2B94FC"/>
<path d="M213.203 34.1328C213.499 34.2044 213.793 34.2807 214.091 34.3448C214.229 34.3753 214.28 34.4345 214.242 34.5787C214.177 34.8212 214.12 35.0667 214.07 35.313C214.04 35.4591 213.969 35.4896 213.831 35.4553C213.536 35.3808 213.238 35.3187 212.942 35.2509C212.935 35.2385 212.926 35.2251 212.918 35.2127C213.001 34.8603 213.084 34.508 213.167 34.1556C213.179 34.148 213.192 34.1404 213.205 34.1318L213.203 34.1328Z" fill="#2B94FC"/>
<path d="M205.15 32.2767C205.068 32.629 204.985 32.9814 204.902 33.3337C204.89 33.3414 204.877 33.349 204.864 33.3567C204.568 33.2851 204.274 33.2096 203.977 33.1447C203.839 33.1142 203.788 33.0549 203.826 32.9107C203.891 32.6682 203.948 32.4228 203.998 32.1765C204.028 32.0303 204.099 31.9989 204.237 32.0332C204.532 32.1068 204.83 32.1698 205.126 32.2375C205.133 32.2509 205.142 32.2633 205.15 32.2767Z" fill="#2B94FC"/>
</g>
</g>
<path d="M42.168 85.1249L42.3241 85.0311L42.7851 82.0702L42.0401 82.7881C41.2974 83.5042 39.7279 83.832 38.6454 83.9083C41.4959 72.2383 44.8601 55.4039 49.5069 29.5738L49.6623 28.7087L43.9077 32.249L43.8059 32.8599C42.7999 38.8842 41.7598 45.1136 40.4015 49.9397C38.9279 55.1752 37.2878 57.9888 35.3904 58.534C35.2633 58.4244 34.9101 57.8555 34.7064 54.885C34.5458 52.5482 34.5161 49.4471 34.4841 46.1637C34.4454 42.1475 34.4053 37.9954 34.1213 34.8005C33.7696 30.8378 33.102 29.0707 31.9578 29.0707C31.1191 29.0707 29.7117 29.7386 28.1943 30.8579L24.8501 33.3113C24.8843 33.0413 24.9029 32.7793 24.9029 32.5259C24.9029 30.5713 24.0739 29.1531 22.9312 29.1531C21.1059 29.1531 18.6428 30.2943 16.1737 32.2849C13.6458 34.3228 11.1961 37.1566 9.01916 40.5487C11.2608 29.0172 13.6607 15.6214 13.6607 9.04054C13.6607 6.37505 13.3403 4.6001 11.7745 4.6001C10.3418 4.6001 9.03552 5.32936 7.77234 6.03496C7.52923 6.17082 7.27867 6.31106 7.02961 6.44429L6.98574 6.46796L2.43192 10.9838L7.34187 8.86611C7.80283 9.45601 8.10022 10.3544 8.10022 12.4072C8.10022 19.4895 5.12258 35.0968 2.73006 47.6371C1.50703 54.048 0.450549 59.584 0.0988829 62.4397L0 63.2461L5.68465 59.7497L5.72703 59.5805C6.48018 56.5942 7.3835 53.6719 8.41322 50.889C11.1254 51.5499 13.283 57.5181 15.77 64.3961C17.1744 68.2817 18.7179 72.5486 20.561 76.3597C19.5439 77.8165 18.6889 79.4109 18.0011 81.1385C16.5729 84.7261 15.8495 88.9264 15.8495 93.6227C15.8495 102.707 18.9751 110.381 22.6754 110.381C23.9453 110.381 25.8263 109.624 27.7036 108.356C29.6827 107.041 31.5176 104.462 33.3139 100.469C34.8298 97.1008 36.2915 92.7857 37.7629 87.3328C39.0706 86.8446 40.5093 86.1197 42.1687 85.1249H42.168ZM22.752 80.382C25.7125 85.1354 28.9675 87.6615 32.6685 88.0674C30.0663 98.284 28.1668 104.398 27.0181 106.256C25.5899 106.133 24.2323 104.463 23.1802 101.519C22.1089 98.5216 21.494 94.5361 21.494 90.5847C21.494 87.0471 21.9386 83.4613 22.7512 80.382H22.752ZM26.0664 34.854L27.7177 33.6409C28.1236 34.3386 28.4203 35.9899 28.5995 38.5616C28.789 41.2736 28.8299 44.7139 28.8701 48.0412C28.9794 57.1622 29.1377 62.7527 30.9355 62.7527C32.7332 62.7527 36.7019 60.5877 39.1323 58.4235C37.1294 68.72 35.4863 76.5043 33.9808 82.803C31.8812 81.6276 29.9117 79.5239 28.0307 76.457C27.4114 75.4473 26.8203 74.3639 26.2545 73.2314C26.5519 72.936 26.8597 72.6854 27.1757 72.4803C27.8552 72.1191 28.792 71.8711 30.1221 71.7001L30.2084 71.6888L35.6499 67.3868L34.3161 67.5034C31.9421 67.712 29.3325 68.7489 26.3378 70.6737L26.3304 70.679C26.001 70.9034 25.6791 71.1348 25.3646 71.3732C23.8159 68.0012 22.4568 64.34 21.2055 60.9707C19.8056 57.199 18.4837 53.6369 17.1149 51.0397C15.5358 48.0412 14.0548 46.6449 12.4555 46.6449C11.573 46.6449 10.7879 46.765 9.89052 47.0472C10.8124 44.8778 12.3046 41.7338 13.8035 39.0911C16.6986 33.9862 18.0539 33.4358 18.5023 33.4358C18.8101 33.4358 19.2561 34.2229 19.2561 35.6472C19.2561 37.9919 17.5536 41.0334 14.7016 43.7831L13.3269 45.1084L18.3238 43.3334L18.3744 43.2887C20.4658 41.427 22.1713 39.4101 23.3074 37.4537C23.8955 36.4414 24.3267 35.4588 24.5914 34.5384L26.0664 34.8549V34.854Z" fill="white"/>
<path d="M68.1518 33.0291C66.9503 30.5134 65.4292 29.0698 63.9794 29.0698C62.4166 29.0698 60.291 30.1471 58.1468 32.0272C53.0004 36.5684 50.3053 52.7148 47.4518 69.8077L47.4228 69.9787C44.6333 86.5264 41.7486 103.638 37.394 109.694L36.3911 111.088L42.5671 107.84L42.6199 107.764C47.373 100.975 50.4071 82.8889 53.0844 66.9292C53.3424 65.3559 53.6041 63.7186 53.8621 62.0856L54.3699 62.3792C54.8963 62.6834 55.7669 62.75 56.0583 62.75C57.3193 62.75 59.0278 62.0716 60.746 60.8892C63.5177 59.0932 65.8663 56.1446 67.5384 52.3633C69.0953 48.8432 69.9525 44.8016 69.9525 40.9817C69.9525 38.3635 69.2789 35.3904 68.1503 33.0273L68.1518 33.0291ZM53.8799 61.9769C53.9937 61.2591 54.1067 60.5412 54.2182 59.8321C55.2145 53.5106 56.2442 46.9736 57.3059 42.0169C58.6546 35.7182 59.6642 33.9029 60.3014 33.5506C62.146 34.634 64.308 39.4329 64.308 44.0223C64.308 48.9554 62.4969 55.1164 60.0768 58.4621C59.8783 58.4428 59.6962 58.3823 59.43 58.2535L59.2665 58.1746L53.8799 61.9769Z" fill="white"/>
<path d="M105.129 29.5422L111.119 26.3814L111.17 26.3122C113.177 23.6029 114.153 21.1223 114.153 18.7294C114.153 16.7003 113.331 14.9727 112.536 13.3012C111.791 11.7348 111.087 10.2553 111.087 8.62844C111.087 7.3794 111.087 5.82884 112.601 4.40713C113.496 4.1021 114.474 3.95397 115.588 3.95397C117.51 3.95397 119.515 4.41677 121.089 5.22317C122.329 5.85864 123.904 7.01302 124.36 8.90717L124.481 9.41029L130.022 5.81832L129.99 5.53609C129.814 3.96887 128.539 2.52875 126.4 1.47956C124.483 0.539058 122.063 0 119.76 0C116.719 0 113.219 1.22449 110.398 3.27467C107.256 5.55887 105.525 8.42246 105.525 11.3386C105.525 13.5527 106.334 15.2312 107.115 16.8546C107.874 18.4297 108.591 19.9171 108.591 21.8498C108.591 23.7826 107.736 25.8827 106.119 28.1511L105.128 29.5413L105.129 29.5422Z" fill="white"/>
<path d="M116.178 58.4013C115.939 58.4784 115.713 58.5512 115.505 58.5512C113.746 58.5512 112.963 56.7798 112.963 52.8091C112.963 45.7128 115.725 33.2347 116.94 29.6419L117.29 28.605L111.45 32.1619L111.413 32.3486C110.846 35.1999 109.068 40.9253 106.768 46.351C104.348 52.058 101.989 55.9602 100.051 57.4845C100.231 55.1714 101.128 50.9176 102.071 46.443C103.194 41.1164 104.355 35.6084 104.531 32.3889V32.3617C104.531 31.2117 104.531 29.0713 103.071 29.0713C101.232 29.0713 97.4997 31.955 96.4 32.8386L95.574 33.5021L98.3784 33.772L98.6952 33.5687C98.8855 34.1139 98.8855 35.1131 98.8855 35.4821C98.8855 38.9943 97.5145 45.1492 96.3049 50.5784C95.2677 55.2336 94.3718 59.2542 94.3718 61.2675L94.3748 61.3236C94.4841 62.2711 94.8886 62.7515 95.577 62.7515C98.5093 62.7515 101.471 59.9887 103.439 57.6721C105.121 55.6911 106.566 53.4727 107.554 51.6495C107.397 53.137 107.317 54.5429 107.317 55.848C107.317 58.0192 107.568 59.6276 108.083 60.7662C108.679 62.0844 109.63 62.7523 110.908 62.7523C111.653 62.7523 112.275 62.6217 112.987 62.3167L113.029 62.2992L116.96 59.1402L116.401 58.3321L116.18 58.4031L116.178 58.4013Z" fill="white"/>
<path d="M163.463 57.9121L163.085 58.0891C162.998 58.1294 162.897 58.1312 162.737 58.1312C161.837 58.1312 160.328 57.423 160.328 52.6775C160.328 49.9498 160.739 47.7953 161.224 46.2027C162.352 42.495 162.603 38.5954 161.828 34.8088C161.166 31.5753 160.054 28.7328 158.166 28.7328C156.875 28.7328 155.332 29.1526 153.506 30.0072C153.506 30.0072 141.625 35.9676 141.244 57.6035L141.089 57.6789C140.988 57.728 140.849 57.8007 140.689 57.8858C140.322 58.0803 139.827 58.3424 139.486 58.4634C138.16 58.289 137.487 56.663 137.487 53.6303C137.487 48.8717 138.953 42.0085 140.131 36.4935C140.747 33.6071 141.28 31.1143 141.486 29.4656L141.588 28.6504L135.956 32.1757L135.932 32.3887C135.799 33.5896 135.372 35.4907 134.878 37.6925C134.461 39.549 133.991 41.6421 133.602 43.7423C132.704 43.9228 131.716 44.0149 130.661 44.0149C129.876 44.0149 129.074 43.9553 128.287 43.8878C129.136 39.5297 129.566 36.0947 129.566 33.6746C129.566 31.4465 129.414 29.0702 127.595 29.0702L127.551 29.0738C126.251 29.2666 123.47 31.074 121.437 32.6719L121.319 32.7648L120.762 35.7169L123.554 33.6238C123.719 33.9524 123.92 34.8579 123.92 36.7967C123.92 38.5708 123.64 40.7718 123.214 43.5126C123.118 43.5074 123.012 43.4995 122.897 43.4925C122.549 43.4688 122.152 43.4425 121.803 43.4425H121.697L116.198 47.7243H117.374C118.362 47.7243 119.317 47.8102 120.242 47.8926C121.007 47.961 121.737 48.0267 122.474 48.0468C121.418 53.8459 120.033 60.1077 119.344 62.1833L119.001 63.2185L124.966 59.5485V59.2961C124.966 58.5291 125.549 56.1327 126.224 53.3585C126.612 51.765 127.049 49.9708 127.444 48.2002C128.988 48.0994 130.45 47.8382 132.021 47.3833L132.089 47.364L133.026 46.555C132.399 50.1952 131.839 53.6276 131.839 56.5868C131.839 58.3845 132.067 59.8106 132.518 60.8247C133.047 62.0142 133.875 62.6619 134.979 62.7513H135.003C136.346 62.7522 140.317 60.432 140.356 60.4084L140.446 60.3549L141.234 58.835C141.285 61.7214 142.668 62.335 143.834 62.335C147.301 62.335 150.872 60.3374 154.457 56.3948C154.548 58.0742 154.761 59.2593 155.127 60.1612C155.713 61.6031 156.734 62.335 158.164 62.335C159.719 62.335 162.073 60.7003 163.338 59.822C163.543 59.68 163.719 59.5573 163.846 59.474L164.118 59.2961L163.46 57.9129L163.463 57.9121ZM156.746 41.6316C156.471 44.2594 155.271 48.1582 153.654 51.6134C151.788 55.5963 149.777 58.0926 148.402 58.1312C147.36 58.1268 147.14 56.6814 147.14 55.4692C147.14 49.5396 147.14 38.1685 153.506 32.9348C155.767 31.0757 156.943 37.1123 156.97 39.1502C156.97 39.1502 156.92 40.4404 156.747 41.6316H156.746Z" fill="white"/>
<path d="M91.6739 58.0912C91.5877 58.1315 91.4866 58.1333 91.3267 58.1333C90.4271 58.1333 88.9171 57.425 88.9171 52.6796C88.9171 49.9519 89.3283 47.7974 89.813 46.2047C90.9409 42.4971 91.1922 38.5974 90.4175 34.8109C89.7558 31.5774 88.6435 28.7349 86.7558 28.7349C85.4644 28.7349 83.9217 29.1547 82.0957 30.0093C82.0957 30.0093 69.8238 36.1651 69.8238 58.6741C69.8238 61.7007 71.2379 62.3362 72.4252 62.3362C75.8928 62.3362 79.4638 60.3386 83.0488 56.396C83.1395 58.0754 83.3522 59.2605 83.7187 60.1624C84.3046 61.6043 85.3254 62.3362 86.7551 62.3362C88.3104 62.3362 90.6643 60.7015 91.9297 59.8232C92.1341 59.6812 92.3104 59.5585 92.4375 59.4752L92.7096 59.2973L92.0516 57.9141L91.6732 58.0912H91.6739ZM85.3358 41.6337C85.0607 44.2615 83.8607 48.1603 82.2429 51.6155C80.3775 55.5984 78.3664 58.0947 76.9917 58.1333C75.9493 58.1289 75.7293 56.6835 75.7293 55.4713C75.7293 49.5416 75.7293 38.1706 82.0957 32.9369C84.3566 31.0778 85.532 37.1144 85.5596 39.1523C85.5596 39.1523 85.509 40.4425 85.3365 41.6337H85.3358Z" fill="white"/>
<defs>
<clipPath id="clip0_1185_37739">
<rect width="47.238" height="47.238" fill="white" transform="translate(182.762 21.458)"/>
</clipPath>
</defs>
</svg>
